<?xml version="1.0" encoding="UTF-8"?>
<svg id="Layer_2" data-name="Layer 2" xmlns="http://www.w3.org/2000/svg" viewBox="0 0 742.33 709.59">
  <defs>
    <style>
      .cls-1 {
        stroke-width: 6px;
      }

      .cls-1, .cls-2, .cls-3, .cls-4, .cls-5, .cls-6, .cls-7, .cls-8, .cls-9, .cls-10 {
        stroke-miterlimit: 10;
      }

      .cls-1, .cls-2, .cls-4, .cls-5, .cls-10 {
        fill: none;
      }

      .cls-1, .cls-2, .cls-4, .cls-6, .cls-10 {
        stroke: #490415;
      }

      .cls-2 {
        stroke-dasharray: 0 0 25 10;
      }

      .cls-2, .cls-4 {
        stroke-width: 3px;
      }

      .cls-3, .cls-5, .cls-7, .cls-8, .cls-9 {
        stroke: #a01236;
      }

      .cls-3, .cls-11 {
        fill: #dde0e3;
      }

      .cls-3, .cls-9 {
        stroke-width: 2px;
      }

      .cls-12, .cls-7, .cls-9 {
        fill: #a01236;
      }

      .cls-12, .cls-11, .cls-13 {
        stroke-width: 0px;
      }

      .cls-4 {
        stroke-dasharray: 0 0 0 0 25 10 0 0;
      }

      .cls-5 {
        opacity: .93;
      }

      .cls-5, .cls-10 {
        stroke-width: 18px;
      }

      .cls-6, .cls-13 {
        fill: #490415;
      }

      .cls-7, .cls-8 {
        stroke-width: 4px;
      }

      .cls-8 {
        fill: #e59aaf;
      }

      .cls-10 {
        stroke-linecap: round;
      }
    </style>
  </defs>
  <g id="Layer_1-2" data-name="Layer 1">
    <path class="cls-3" d="M706.27,607.14c-2.73,4.09-28.88.1-49.72-3.83-18.76-3.54-37.85-5-56.93-4.4l-443.61,13.8c-11.55.36-23.05,1.63-34.4,3.83-27.34,5.29-81.09,14.87-98.41,12.06-23.59-3.83,36.3-23.74,36.3-23.74h-31.87c-19.92-19.92,33.7-9.96,33.7-9.96,33.7-9.96,34.47-28.09,34.47-28.09V142.93c0-5.62,4.55-10.17,10.17-10.17h469.19c9.38,0,16.98,7.6,16.98,16.98v391.11s3.92-6.64,9.19-8.75c5.28-2.11,8-3.68,6.47,11.47-1.53,15.15,1.87,19.4,6.64,24.34,4.76,4.94,27.06,6.13,41.7,10.55,14.64,4.43,11.92,9.19,11.92,11.41s-10.73,1.87-10.73,1.87l-4.63.49c-2.29.24-2.59,3.46-.38,4.11,2.48.73,5.54.96,8.91-.25,4.89-1.75,13.62-2.64,20.23-3.09,7.36-.49,14.72,1.45,20.72,5.73,3.54,2.53,6.01,5.53,4.1,8.4Z"/>
    <rect class="cls-8" x="122.35" y="155.23" width="446.3" height="308.43"/>
    <rect class="cls-7" x="122.35" y="485.1" width="440.17" height="30.67"/>
    <rect class="cls-7" x="123.5" y="532.1" width="321.7" height="12.38"/>
    <rect class="cls-3" x="270.26" y="264.42" width="158.55" height="79.66" rx="8.04" ry="8.04"/>
    <rect class="cls-9" x="287.12" y="250.63" width="26.81" height="13.79"/>
    <rect class="cls-9" x="291.71" y="278.21" width="18.38" height="7.66" rx="3.36" ry="3.36"/>
    <g>
      <circle class="cls-11" cx="355.29" cy="304.25" r="25.28"/>
      <circle class="cls-5" cx="355.29" cy="304.25" r="25.28"/>
      <circle class="cls-1" cx="355.29" cy="304.25" r="25.28"/>
    </g>
    <polygon class="cls-9" points="562.52 1 562.52 86.79 443.47 86.79 423.43 119.99 403.39 86.79 284.35 86.79 284.35 1 562.52 1"/>
    <g>
      <path class="cls-10" d="M82.08,512.5s-150.42,75.77-19.64,144.92"/>
      <polygon class="cls-13" points="70.53 633.19 48.45 678.38 82.08 666.82 70.53 633.19"/>
    </g>
    <path class="cls-10" d="M174.69,404.68c96-30.64,109.66,43.91,109.66,43.91,0,0,111.7-63.32,160.85-9.19,0,0,191.11-156.26,288.13,9.19"/>
    <g>
      <path class="cls-6" d="M36.04,393.57l28.56,32.69-8.83,7.71-28.56-32.69-10.97,9.59-6.85-7.84,30.77-26.89,6.85,7.84-10.97,9.59Z"/>
      <path class="cls-6" d="M81.03,411.9l-35.41-40.53,27.58-24.1,6.85,7.84-18.75,16.39,7.26,8.3,16.08-14.05,6.8,7.78-16.08,14.05,7.66,8.77,18.75-16.39,6.85,7.84-27.58,24.1Z"/>
      <path class="cls-6" d="M114.38,351.63l.3,11,9.84,11.26-8.83,7.71-35.41-40.53,8.83-7.71,16.84,19.28.35-.3-1.1-12.86-.88-19.4,9.99-8.73.92,28.59,35.71,10.88-10.39,9.08-26.16-8.27Z"/>
      <path class="cls-4" d="M147.56,343.43l.68-10.94c5.42.69,10.27-.78,14.22-4.23,4.3-3.75,4.71-7.5,2.12-10.46-1.93-2.21-4.28-3.02-8.51-.25l-4.46,2.98c-9.5,6.35-17.04,5.57-22.98-1.22-6.34-7.26-5.06-17.28,4.46-25.6,6.1-5.33,12.52-7.35,19.02-6.59l-.69,11.05c-3.89-.59-7.88.12-12.06,3.78-3.95,3.45-4.54,6.63-2.41,9.07,2.44,2.79,4.8,2.56,8.62.14l4.57-2.86c9.47-5.92,16.72-5.7,22.81,1.26,6.8,7.78,5.83,18.15-4.28,26.98-7.08,6.19-14.29,7.67-21.12,6.88Z"/>
      <path class="cls-2" d="M177.6,269.88l28.56,32.69-8.83,7.71-28.56-32.69-10.97,9.59-6.85-7.84,30.77-26.89,6.85,7.84-10.97,9.59Z"/>
    </g>
    <g>
      <path class="cls-11" d="M350.66,28.91v31.59h-8.53v-31.59h-10.6v-7.57h29.74v7.57h-10.6Z"/>
      <path class="cls-11" d="M360.59,45.74c0-9.48,5.16-15.37,13.8-15.37s13.8,5.89,13.8,15.37-5.16,15.43-13.8,15.43-13.8-5.95-13.8-15.43ZM379.55,48.77v-6c0-3.7-1.91-5.84-5.16-5.84s-5.16,2.13-5.16,5.84v6c0,3.7,1.91,5.83,5.16,5.83s5.16-2.13,5.16-5.83Z"/>
      <path class="cls-11" d="M391.67,45.74c0-9.48,5.16-15.37,13.8-15.37s13.8,5.89,13.8,15.37-5.16,15.43-13.8,15.43-13.8-5.95-13.8-15.43ZM410.63,48.77v-6c0-3.7-1.91-5.84-5.16-5.84s-5.16,2.13-5.16,5.84v6c0,3.7,1.91,5.83,5.16,5.83s5.16-2.13,5.16-5.83Z"/>
      <path class="cls-11" d="M432.85,60.49c-5.67,0-8.25-2.86-8.25-8.08V18.98h8.3v35.07h3.7v6.45h-3.76Z"/>
      <path class="cls-11" d="M451.09,60.49c-5.72,0-8.75-2.97-8.75-8.58v-14.42h-4.15v-6.45h2.08c2.24,0,2.92-1.12,2.92-3.14v-4.82h7.46v7.97h5.83v6.45h-5.83v16.55h5.39v6.45h-4.94Z"/>
      <path class="cls-11" d="M461.02,23.8v-1.23c0-2.36,1.46-4.1,4.83-4.1s4.83,1.74,4.83,4.1v1.23c0,2.36-1.46,4.1-4.83,4.1s-4.83-1.74-4.83-4.1ZM461.69,31.04h8.3v29.46h-8.3v-29.46Z"/>
      <path class="cls-11" d="M477.18,31.04h8.3v4.94h.28c.84-3.25,4.1-5.61,7.91-5.61,7.46,0,11.33,5.39,11.33,15.37s-3.87,15.43-11.33,15.43c-3.81,0-7.07-2.41-7.91-5.61h-.28v16.16h-8.3V31.04ZM496.37,48.32v-5.11c0-3.7-2.3-6.12-5.44-6.12s-5.44,1.63-5.44,4.32v8.7c0,2.69,2.3,4.32,5.44,4.32s5.44-2.41,5.44-6.12Z"/>
    </g>
    <g>
      <path class="cls-12" d="M147.15,709.59l-5.62-18.64h-26.17l-5.62,18.64h-17.29l25.83-78.39h21.11l25.49,78.39h-17.74ZM128.62,646.7h-.56l-8.65,29.76h17.97l-8.76-29.76Z"/>
      <path class="cls-12" d="M174.66,709.59v-78.39h17.07v63.23h29.87v15.16h-46.94Z"/>
      <path class="cls-12" d="M249.04,646.36v63.23h-17.07v-63.23h-21.23v-15.16h59.52v15.16h-21.23Z"/>
      <path class="cls-12" d="M288.08,668.94v-13.25h52.33v13.25h-52.33ZM288.08,694.99v-13.25h52.33v13.25h-52.33Z"/>
      <path class="cls-12" d="M373.54,633.45v2.36c0,8.76-5.39,17.97-12.24,23.25h-10.44c4.94-4.49,8.54-8.98,10.33-14.6-4.83-.9-6.96-4.27-6.96-8.2v-2.81c0-4.6,2.92-8.09,9.66-8.09s9.66,3.48,9.66,8.09ZM399.93,633.45v2.36c0,8.76-5.39,17.97-12.24,23.25h-10.44c4.94-4.49,8.54-8.98,10.33-14.6-4.83-.9-6.96-4.27-6.96-8.2v-2.81c0-4.6,2.92-8.09,9.66-8.09s9.66,3.48,9.66,8.09Z"/>
      <path class="cls-12" d="M432.5,633.45v2.36c0,8.76-5.39,17.97-12.24,23.25h-10.44c4.94-4.49,8.54-8.98,10.33-14.6-4.83-.9-6.96-4.27-6.96-8.2v-2.81c0-4.6,2.92-8.09,9.66-8.09s9.66,3.48,9.66,8.09ZM458.89,633.45v2.36c0,8.76-5.39,17.97-12.24,23.25h-10.44c4.94-4.49,8.54-8.98,10.33-14.6-4.83-.9-6.96-4.27-6.96-8.2v-2.81c0-4.6,2.92-8.09,9.66-8.09s9.66,3.48,9.66,8.09Z"/>
    </g>
  </g>
</svg>