<?xml version="1.0" encoding="UTF-8"?>
<svg id="Layer_2" data-name="Layer 2" xmlns="http://www.w3.org/2000/svg" viewBox="0 0 461.47 562.67">
  <defs>
    <style>
      .cls-1 {
        fill: none;
        stroke: #a01236;
        stroke-width: 4px;
      }

      .cls-1, .cls-2 {
        stroke-miterlimit: 10;
      }

      .cls-2 {
        fill: #dde0e3;
        stroke: #dde0e3;
      }

      .cls-3 {
        fill: #f0c2c9;
      }

      .cls-3, .cls-4, .cls-5 {
        stroke-width: 0px;
      }

      .cls-4 {
        fill: #fff;
      }

      .cls-5 {
        fill: #a01236;
      }
    </style>
  </defs>
  <g id="Layer_1-2" data-name="Layer 1">
    <rect class="cls-2" x=".5" y="12" width="460.47" height="550.18" rx="25.66" ry="25.66"/>
    <path class="cls-4" d="M52.86,29.55h371.81c6.38,0,11.56,5.18,11.56,11.56v448.73c0,6.38-5.18,11.56-11.56,11.56H36.79c-6.38,0-11.56-5.18-11.56-11.56V57.18c0-15.25,12.38-27.63,27.63-27.63Z"/>
    <rect class="cls-3" x="135.23" y="193.92" width="237.36" height="17.4" rx=".62" ry=".62"/>
    <rect class="cls-3" x="136.95" y="223.66" width="235.64" height="7.54" rx=".62" ry=".62"/>
    <rect class="cls-3" x="136.95" y="240.4" width="125.93" height="11.81" rx=".62" ry=".62"/>
    <rect class="cls-3" x="135.23" y="99.68" width="237.36" height="17.4" rx=".62" ry=".62"/>
    <rect class="cls-3" x="136.95" y="129.41" width="235.64" height="7.54" rx=".62" ry=".62"/>
    <rect class="cls-3" x="136.95" y="146.16" width="125.93" height="11.81" rx=".62" ry=".62"/>
    <rect class="cls-3" x="130.65" y="390.36" width="237.36" height="17.4" rx=".62" ry=".62"/>
    <rect class="cls-3" x="132.37" y="420.09" width="235.64" height="7.54" rx=".62" ry=".62"/>
    <rect class="cls-3" x="132.37" y="436.84" width="125.93" height="11.81" rx="1.25" ry="1.25"/>
    <rect class="cls-3" x="135.23" y="288.31" width="237.36" height="17.4" rx=".62" ry=".62"/>
    <rect class="cls-3" x="136.95" y="318.04" width="235.64" height="7.54" rx=".62" ry=".62"/>
    <rect class="cls-3" x="136.95" y="334.79" width="125.93" height="11.81" rx=".62" ry=".62"/>
    <path class="cls-5" d="M119.93,0h221.6c3.74,0,6.77,3.03,6.77,6.77v35.69c0,7.56-6.14,13.71-13.71,13.71H126.87c-7.56,0-13.71-6.14-13.71-13.71V6.77c0-3.74,3.03-6.77,6.77-6.77Z"/>
    <path class="cls-5" d="M62.62,393.37v44.52c0,1.66,1.35,3.01,3.01,3.01h44.52c1.66,0,3.01-1.35,3.01-3.01v-44.52c0-1.66-1.35-3.01-3.01-3.01h-44.52c-1.66,0-3.01,1.35-3.01,3.01ZM71.84,417.5l2.09-2.84c.8-1.09,2.34-1.33,3.43-.52l5.05,3.71c1.09.8,2.62.57,3.43-.52l11.27-15.32c.8-1.09,2.34-1.32,3.43-.52l2.9,2.13c1.09.8,1.32,2.32.53,3.41l-16.1,22.24c-.8,1.1-2.34,1.34-3.44.54l-12.06-8.87c-1.09-.8-1.32-2.34-.52-3.43Z"/>
    <path class="cls-5" d="M62.62,192.48v44.52c0,1.66,1.35,3.01,3.01,3.01h44.52c1.66,0,3.01-1.35,3.01-3.01v-44.52c0-1.66-1.35-3.01-3.01-3.01h-44.52c-1.66,0-3.01,1.35-3.01,3.01ZM71.84,216.6l2.09-2.84c.8-1.09,2.34-1.33,3.43-.52l5.05,3.71c1.09.8,2.62.57,3.43-.52l11.27-15.32c.8-1.09,2.34-1.32,3.43-.52l2.9,2.13c1.09.8,1.32,2.32.53,3.41l-16.1,22.24c-.8,1.1-2.34,1.34-3.44.54l-12.06-8.87c-1.09-.8-1.32-2.34-.52-3.43Z"/>
    <path class="cls-1" d="M62.62,291.32v44.52c0,1.66,1.35,3.01,3.01,3.01h44.52c1.66,0,3.01-1.35,3.01-3.01v-44.52c0-1.66-1.35-3.01-3.01-3.01h-44.52c-1.66,0-3.01,1.35-3.01,3.01Z"/>
    <path class="cls-5" d="M62.62,102.4v44.52c0,1.66,1.35,3.01,3.01,3.01h44.52c1.66,0,3.01-1.35,3.01-3.01v-44.52c0-1.66-1.35-3.01-3.01-3.01h-44.52c-1.66,0-3.01,1.35-3.01,3.01ZM71.84,126.52l2.09-2.84c.8-1.09,2.34-1.33,3.43-.52l5.05,3.71c1.09.8,2.62.57,3.43-.52l11.27-15.32c.8-1.09,2.34-1.32,3.43-.52l2.9,2.13c1.09.8,1.32,2.32.53,3.41l-16.1,22.24c-.8,1.1-2.34,1.34-3.44.54l-12.06-8.87c-1.09-.8-1.32-2.34-.52-3.43Z"/>
  </g>
</svg>