<?xml version="1.0" encoding="UTF-8"?>
<svg id="Layer_2" data-name="Layer 2" xmlns="http://www.w3.org/2000/svg" xmlns:xlink="http://www.w3.org/1999/xlink" viewBox="0 0 938.24 699.56">
  <defs>
    <style>
      .cls-1 {
        fill: url(#linear-gradient);
      }

      .cls-1, .cls-2, .cls-3, .cls-4, .cls-5, .cls-6, .cls-7 {
        stroke-width: 0px;
      }

      .cls-8 {
        stroke: #dde0e3;
        stroke-width: 3px;
      }

      .cls-8, .cls-9, .cls-10 {
        fill: none;
      }

      .cls-11 {
        fill: #dde0e3;
        stroke: #aaa;
      }

      .cls-11, .cls-12, .cls-9 {
        stroke-miterlimit: 10;
      }

      .cls-2 {
        fill: #a01236;
      }

      .cls-3 {
        filter: url(#drop-shadow-2);
      }

      .cls-3, .cls-6 {
        fill: #e59aaf;
      }

      .cls-4 {
        fill: url(#linear-gradient-2);
      }

      .cls-12 {
        stroke: #490415;
      }

      .cls-12, .cls-7 {
        fill: #490415;
      }

      .cls-9 {
        stroke: #d9e54d;
        stroke-width: 7px;
      }

      .cls-10 {
        stroke: #a01236;
        stroke-width: 6px;
      }

      .cls-5 {
        fill: #dde0e3;
      }

      .cls-6 {
        filter: url(#drop-shadow-1);
      }
    </style>
    <linearGradient id="linear-gradient" x1="306.74" y1="392.3" x2="525.91" y2="392.3" gradientUnits="userSpaceOnUse">
      <stop offset="0" stop-color="#e59aaf"/>
      <stop offset=".99" stop-color="#a01236"/>
    </linearGradient>
    <filter id="drop-shadow-1" filterUnits="userSpaceOnUse">
      <feOffset dx="2" dy="-1"/>
      <feGaussianBlur result="blur" stdDeviation="2"/>
      <feFlood flood-color="#af3784" flood-opacity=".75"/>
      <feComposite in2="blur" operator="in"/>
      <feComposite in="SourceGraphic"/>
    </filter>
    <linearGradient id="linear-gradient-2" x1="306.74" y1="438.92" x2="448.8" y2="438.92" xlink:href="#linear-gradient"/>
    <filter id="drop-shadow-2" filterUnits="userSpaceOnUse">
      <feOffset dx="2" dy="-1"/>
      <feGaussianBlur result="blur-2" stdDeviation="2"/>
      <feFlood flood-color="#af3784" flood-opacity=".75"/>
      <feComposite in2="blur-2" operator="in"/>
      <feComposite in="SourceGraphic"/>
    </filter>
  </defs>
  <g id="Layer_1-2" data-name="Layer 1">
    <path class="cls-9" d="M129.92,676.88s-189.96-117.59-104.17-237.11,332.43-142.56,332.43-142.56c0,0,597.45,40.59,576-156.2-21.55-197.77-290.41-124.09-290.41-124.09"/>
    <g>
      <rect class="cls-7" x="300.04" y="491.8" width="343.15" height="87.72"/>
      <polygon class="cls-2" points="524.36 491.8 612.08 579.53 637.87 579.53 550.14 491.8 524.36 491.8"/>
      <polygon class="cls-2" points="300.62 491.8 300.62 579.53 564.34 579.53 476.61 491.8 300.62 491.8"/>
      <polygon class="cls-2" points="476.61 491.8 564.34 579.53 587.13 579.53 499.41 491.8 476.61 491.8"/>
      <polygon class="cls-2" points="599.42 491.8 575.68 491.8 643.76 559.89 643.76 536.15 599.42 491.8"/>
      <polygon class="cls-2" points="643.76 491.8 624.44 491.8 643.76 511.13 643.76 491.8"/>
    </g>
    <g>
      <path class="cls-7" d="M488.24,65.89c-7.46,0-14.77.61-21.9,1.76,21.48,24.04,34.54,55.76,34.54,90.53,0,67.63-49.38,123.72-114.06,134.19,24.9,27.87,61.11,45.42,101.42,45.42,75.09,0,135.96-60.87,135.96-135.96s-60.87-135.96-135.96-135.96Z"/>
      <circle class="cls-7" cx="386.81" cy="161.26" r="135.96"/>
      <path class="cls-2" d="M409.37,113.92c-4.23,4.68-8.13,9.66-11.67,14.9l119.02,68.91c-1.92,6.3-4.27,12.41-7.04,18.29l-121.68-70.43c-2.73,5.61-5.07,11.44-7.01,17.45l119.62,69.26c-2.71,4.16-5.64,8.17-8.78,12l-114.72-66.42c-1.14,5.61-1.93,11.34-2.36,17.18l105.92,61.3c-4.43,4.24-9.13,8.18-14.08,11.79l-91.82-53.15c.58,7.87,1.82,15.55,3.69,22.99l71.49,40.54c-6.87,3.63-14.11,6.69-21.63,9.11l-39.36-21.47c5.38,10.63,12.12,20.48,19.99,29.28-7.13,1.16-14.45,1.77-21.91,1.77-75.09,0-135.95-60.87-135.95-135.96S311.95,25.3,387.04,25.3c39.01,0,74.16,16.42,98.95,42.74.68-.13,1.35-.24,2.01-.35,7.35,8.22,13.7,17.33,18.89,27.15l-35.1-20.31c-6.16,1.81-12.15,4.06-17.92,6.7l62.42,36.14c2.18,6.89,3.81,14.02,4.86,21.34l-83.76-48.5c-5.31,3.37-10.37,7.11-15.14,11.18l100.28,58.06c-.06,6.49-.56,12.88-1.51,19.12l-111.65-64.65Z"/>
      <g>
        <g>
          <path class="cls-5" d="M426.6,235.64l-11.4-36.23h-50.48l-11.2,36.23h-27.28l47.63-142.08h33.38l47.22,142.08h-27.89ZM390.37,117.98h-1.02l-18.12,58.42h37.45l-18.32-58.42Z"/>
          <path class="cls-5" d="M466.9,206.73c0-21.78,16.49-32.57,45.39-32.57h18.12v-7.74c0-11.81-5.9-18.73-19.75-18.73-12.21,0-19.13,6.11-24.22,13.43l-15.47-13.84c7.74-12.21,20.15-20.35,41.52-20.35,28.7,0,43.97,13.64,43.97,37.86v50.07h10.58v20.76h-14.45c-11.2,0-18.12-7.33-19.74-18.32h-1.22c-3.46,13.64-15.06,20.76-30.94,20.76-21.58,0-33.79-12.42-33.79-31.35ZM530.41,203.88v-14.05h-16.69c-13.64,0-20.36,4.68-20.36,13.03v3.46c0,8.55,5.9,12.82,16.08,12.82,11.6,0,20.97-5.29,20.97-15.27Z"/>
        </g>
        <g>
          <path class="cls-8" d="M426.6,235.64l-11.4-36.23h-50.48l-11.2,36.23h-27.28l47.63-142.08h33.38l47.22,142.08h-27.89ZM390.37,117.98h-1.02l-18.12,58.42h37.45l-18.32-58.42Z"/>
          <path class="cls-8" d="M466.9,206.73c0-21.78,16.49-32.57,45.39-32.57h18.12v-7.74c0-11.81-5.9-18.73-19.75-18.73-12.21,0-19.13,6.11-24.22,13.43l-15.47-13.84c7.74-12.21,20.15-20.35,41.52-20.35,28.7,0,43.97,13.64,43.97,37.86v50.07h10.58v20.76h-14.45c-11.2,0-18.12-7.33-19.74-18.32h-1.22c-3.46,13.64-15.06,20.76-30.94,20.76-21.58,0-33.79-12.42-33.79-31.35ZM530.41,203.88v-14.05h-16.69c-13.64,0-20.36,4.68-20.36,13.03v3.46c0,8.55,5.9,12.82,16.08,12.82,11.6,0,20.97-5.29,20.97-15.27Z"/>
        </g>
        <g>
          <path class="cls-10" d="M426.6,235.64l-11.4-36.23h-50.48l-11.2,36.23h-27.28l47.63-142.08h33.38l47.22,142.08h-27.89ZM390.37,117.98h-1.02l-18.12,58.42h37.45l-18.32-58.42Z"/>
          <path class="cls-10" d="M466.9,206.73c0-21.78,16.49-32.57,45.39-32.57h18.12v-7.74c0-11.81-5.9-18.73-19.75-18.73-12.21,0-19.13,6.11-24.22,13.43l-15.47-13.84c7.74-12.21,20.15-20.35,41.52-20.35,28.7,0,43.97,13.64,43.97,37.86v50.07h10.58v20.76h-14.45c-11.2,0-18.12-7.33-19.74-18.32h-1.22c-3.46,13.64-15.06,20.76-30.94,20.76-21.58,0-33.79-12.42-33.79-31.35ZM530.41,203.88v-14.05h-16.69c-13.64,0-20.36,4.68-20.36,13.03v3.46c0,8.55,5.9,12.82,16.08,12.82,11.6,0,20.97-5.29,20.97-15.27Z"/>
        </g>
        <g>
          <path class="cls-8" d="M426.6,235.64l-11.4-36.23h-50.48l-11.2,36.23h-27.28l47.63-142.08h33.38l47.22,142.08h-27.89ZM390.37,117.98h-1.02l-18.12,58.42h37.45l-18.32-58.42Z"/>
          <path class="cls-8" d="M466.9,206.73c0-21.78,16.49-32.57,45.39-32.57h18.12v-7.74c0-11.81-5.9-18.73-19.75-18.73-12.21,0-19.13,6.11-24.22,13.43l-15.47-13.84c7.74-12.21,20.15-20.35,41.52-20.35,28.7,0,43.97,13.64,43.97,37.86v50.07h10.58v20.76h-14.45c-11.2,0-18.12-7.33-19.74-18.32h-1.22c-3.46,13.64-15.06,20.76-30.94,20.76-21.58,0-33.79-12.42-33.79-31.35ZM530.41,203.88v-14.05h-16.69c-13.64,0-20.36,4.68-20.36,13.03v3.46c0,8.55,5.9,12.82,16.08,12.82,11.6,0,20.97-5.29,20.97-15.27Z"/>
        </g>
      </g>
    </g>
    <g>
      <rect class="cls-5" x="387.89" y="383.8" width="219.16" height="17.01" rx="8.5" ry="8.5"/>
      <rect class="cls-1" x="306.74" y="383.8" width="219.16" height="17.01" rx="8.5" ry="8.5"/>
    </g>
    <circle class="cls-6" cx="525.91" cy="392.3" r="21.07"/>
    <g>
      <g>
        <rect class="cls-5" x="387.89" y="430.42" width="219.16" height="17.01" rx="8.5" ry="8.5"/>
        <rect class="cls-4" x="306.74" y="430.42" width="142.05" height="17.01" rx="8.5" ry="8.5"/>
      </g>
      <circle class="cls-3" cx="437.39" cy="438.92" r="21.07"/>
    </g>
    <rect class="cls-11" x="295.32" y="611.34" width="343.15" height="87.72"/>
    <g>
      <path class="cls-12" d="M336.32,638.83v36.72h-8.34v-36.72h-12.51v-7.39h33.37v7.39h-12.51Z"/>
      <path class="cls-12" d="M348.83,659c0-10.43,5.62-17.19,15.29-17.19,10.3,0,15.04,7.58,15.04,16.62v2.65h-21.93v.82c0,4.74,2.72,7.96,8.03,7.96,3.98,0,6.38-1.9,8.41-4.49l4.36,4.87c-2.72,3.73-7.52,6.07-13.65,6.07-9.73,0-15.55-6.76-15.55-17.32ZM357.23,655.58v.51h13.52v-.57c0-4.55-2.34-7.65-6.51-7.65s-7.01,3.16-7.01,7.71Z"/>
      <path class="cls-12" d="M386.31,628.78h8.09v28.19h.32l4.36-5.94,7.39-8.47h9.17l-11.38,12.77,12.58,20.22h-9.61l-8.47-14.79-4.36,4.74v10.05h-8.09v-46.77Z"/>
      <path class="cls-12" d="M418.35,670.25l4.93-4.8c2.4,2.78,5.31,4.49,9.04,4.49s5.5-1.45,5.5-3.79c0-1.9-1.14-3.1-4.04-3.48l-3.29-.44c-7.08-.88-11-3.98-11-9.99,0-6.38,4.99-10.43,12.51-10.43,6.45,0,9.73,1.9,12.89,5.18l-4.74,4.74c-1.9-2.02-4.68-3.54-7.9-3.54-3.48,0-4.99,1.39-4.99,3.41,0,2.21,1.2,3.22,4.3,3.73l3.35.44c7.21,1.01,10.68,4.23,10.68,9.73,0,6.38-5.37,10.81-13.59,10.81-6.26,0-10.37-2.28-13.65-6.07Z"/>
      <path class="cls-12" d="M453.99,667.15v-18.14h-4.87v-6.45h2.53c2.4,0,3.16-1.14,3.16-3.41v-5.62h7.27v9.04h6.76v6.45h-6.76v20.1h6.26v6.45h-5.81c-5.56,0-8.53-3.03-8.53-8.41Z"/>
    </g>
    <g>
      <path class="cls-5" d="M487.08,517.29v36.72h-8.34v-36.72h-12.51v-7.39h33.37v7.39h-12.51Z"/>
      <path class="cls-5" d="M499.59,537.45c0-10.43,5.62-17.19,15.29-17.19,10.3,0,15.04,7.58,15.04,16.62v2.65h-21.93v.82c0,4.74,2.72,7.96,8.03,7.96,3.98,0,6.38-1.9,8.41-4.49l4.36,4.87c-2.72,3.73-7.52,6.07-13.65,6.07-9.73,0-15.55-6.76-15.55-17.32ZM508,534.03v.51h13.52v-.57c0-4.55-2.34-7.65-6.51-7.65s-7.01,3.16-7.01,7.71Z"/>
      <path class="cls-5" d="M537.07,507.24h8.09v28.19h.32l4.36-5.94,7.39-8.47h9.17l-11.38,12.77,12.58,20.22h-9.61l-8.47-14.79-4.36,4.74v10.05h-8.09v-46.77Z"/>
      <path class="cls-5" d="M569.11,548.7l4.93-4.8c2.4,2.78,5.31,4.49,9.04,4.49s5.5-1.45,5.5-3.79c0-1.9-1.14-3.1-4.04-3.48l-3.29-.44c-7.08-.88-11-3.98-11-9.99,0-6.38,4.99-10.43,12.51-10.43,6.45,0,9.73,1.9,12.89,5.18l-4.74,4.74c-1.9-2.02-4.68-3.54-7.9-3.54-3.48,0-4.99,1.39-4.99,3.41,0,2.21,1.2,3.22,4.3,3.73l3.35.44c7.21,1.01,10.68,4.23,10.68,9.73,0,6.38-5.37,10.81-13.59,10.81-6.26,0-10.37-2.28-13.65-6.07Z"/>
      <path class="cls-5" d="M604.76,545.6v-18.14h-4.87v-6.45h2.53c2.4,0,3.16-1.14,3.16-3.41v-5.62h7.27v9.04h6.76v6.45h-6.76v20.1h6.26v6.45h-5.81c-5.56,0-8.53-3.03-8.53-8.41Z"/>
    </g>
    <g>
      <path class="cls-5" d="M346.01,549.73v-4.77h-11.33v-4.56l10.04-15.53h6.57v15.96h3.25v4.13h-3.25v4.77h-5.28ZM339.1,540.82h6.9v-10.44h-.37l-6.53,10.44Z"/>
      <path class="cls-5" d="M358.19,547.27v-.71c0-1.64,1.03-2.85,3.25-2.85s3.25,1.21,3.25,2.85v.71c0,1.64-1.03,2.85-3.25,2.85s-3.25-1.21-3.25-2.85Z"/>
      <path class="cls-5" d="M386.43,529.53h-11.7l-.55,7.87h.3c1.03-2.35,2.25-3.95,5.54-3.95,4.39,0,7.94,2.92,7.94,7.91s-3.54,8.8-9.89,8.8c-4.98,0-7.64-2.25-9.19-4.77l4.02-3.06c1.11,1.92,2.55,3.49,5.2,3.49s4.02-1.6,4.02-4.03v-.29c0-2.28-1.48-3.71-3.88-3.71-1.99,0-3.32,1-3.99,1.75l-4.54-.61.96-14.07h15.76v4.67Z"/>
      <path class="cls-5" d="M392.15,534.2v-.71c0-1.64,1.03-2.85,3.25-2.85s3.25,1.21,3.25,2.85v.71c0,1.64-1.03,2.85-3.25,2.85s-3.25-1.21-3.25-2.85ZM392.15,547.27v-.71c0-1.64,1.03-2.85,3.25-2.85s3.25,1.21,3.25,2.85v.71c0,1.64-1.03,2.85-3.25,2.85s-3.25-1.21-3.25-2.85Z"/>
      <path class="cls-5" d="M404.96,549.73v-4.31h6.94v-16.67h-.33l-5.24,6.63-3.54-2.67,6.16-7.84h8.49v20.56h5.46v4.31h-17.94Z"/>
    </g>
    <g>
      <path class="cls-7" d="M522.36,645.81c6.68,0,9.66-2.79,9.66-6.54v-.61c0-4.36-3.16-7.32-8.49-7.32s-9.66,2.61-12.82,7.23l-8.49-7.67c4.79-6.01,10.93-10.2,21.76-10.2,13.55,0,22.3,6.36,22.3,16.12,0,7.76-5.51,12.55-12.01,13.68v.52c7.5,1.31,13.09,6.27,13.09,14.64,0,10.89-9.66,17.95-23.93,17.95-12.82,0-19.23-5.49-23.3-11.68l10.02-7.49c2.71,4.97,6.5,8.54,13.27,8.54,6.14,0,9.75-3.22,9.75-8.28v-.52c0-4.97-4.15-7.5-11.02-7.5h-5.69v-10.89h5.87Z"/>
      <path class="cls-7" d="M559.83,644.59v-1.74c0-4.01,2.53-6.97,7.95-6.97s7.95,2.96,7.95,6.97v1.74c0,4.01-2.53,6.97-7.95,6.97s-7.95-2.96-7.95-6.97ZM559.83,676.57v-1.74c0-4.01,2.53-6.97,7.95-6.97s7.95,2.96,7.95,6.97v1.74c0,4.01-2.53,6.97-7.95,6.97s-7.95-2.96-7.95-6.97Z"/>
      <path class="cls-7" d="M591.16,682.58v-10.54h16.98v-40.78h-.81l-12.82,16.21-8.67-6.54,15.08-19.17h20.77v50.28h13.36v10.54h-43.89Z"/>
    </g>
  </g>
</svg>