<?xml version="1.0" encoding="UTF-8"?>
<svg id="Layer_2" data-name="Layer 2" xmlns="http://www.w3.org/2000/svg" viewBox="0 0 916.95 461.3">
  <defs>
    <style>
      .cls-1 {
        fill: none;
        stroke: #a01236;
        stroke-dasharray: 0 0 41 30;
        stroke-width: 15px;
      }

      .cls-1, .cls-2 {
        stroke-miterlimit: 10;
      }

      .cls-2 {
        stroke: #490415;
      }

      .cls-2, .cls-3 {
        fill: #490415;
      }

      .cls-4 {
        fill: #dde0e3;
      }

      .cls-4, .cls-3 {
        stroke-width: 0px;
      }
    </style>
  </defs>
  <g id="Layer_1-2" data-name="Layer 1">
    <circle class="cls-3" cx="66.77" cy="332.9" r="66.77"/>
    <path class="cls-4" d="M78.03,355.09l-3.76-12.49h-17.52l-3.76,12.49h-11.58l17.3-52.5h14.14l17.07,52.5h-11.88ZM65.62,312.97h-.38l-5.79,19.93h12.03l-5.87-19.93Z"/>
    <circle class="cls-3" cx="285.98" cy="294.99" r="120.51"/>
    <g>
      <path class="cls-4" d="M263.4,330.29l-5.85-19.43h-27.27l-5.85,19.43h-18.03l26.92-81.7h22l26.57,81.7h-18.49ZM244.09,264.74h-.58l-9.01,31.02h18.73l-9.13-31.02Z"/>
      <path class="cls-4" d="M343.58,330.29l-5.85-19.43h-27.27l-5.85,19.43h-18.03l26.92-81.7h22l26.57,81.7h-18.49ZM324.27,264.74h-.58l-9.01,31.02h18.73l-9.13-31.02Z"/>
      <path class="cls-4" d="M204.06,349.72v-11.7h160.35v11.7h-160.35Z"/>
    </g>
    <circle class="cls-1" cx="686.3" cy="230.65" r="223.15"/>
    <circle class="cls-2" cx="686.3" cy="230.65" r="200.94"/>
    <g>
      <path class="cls-4" d="M621.67,268.95l-5.79-19.23h-26.98l-5.79,19.23h-17.83l26.64-80.84h21.77l26.29,80.84h-18.3ZM602.56,204.09h-.58l-8.92,30.69h18.53l-9.03-30.69Z"/>
      <path class="cls-4" d="M701.01,268.95l-5.79-19.23h-26.98l-5.79,19.23h-17.83l26.64-80.84h21.77l26.29,80.84h-18.3ZM681.9,204.09h-.58l-8.92,30.69h18.53l-9.03-30.69Z"/>
      <path class="cls-4" d="M780.34,268.95l-5.79-19.23h-26.98l-5.79,19.23h-17.83l26.64-80.84h21.77l26.29,80.84h-18.3ZM761.23,204.09h-.58l-8.92,30.69h18.53l-9.03-30.69Z"/>
      <path class="cls-4" d="M562.96,288.17v-11.58h238v11.58h-238Z"/>
    </g>
  </g>
</svg>