<?xml version="1.0" encoding="UTF-8"?>
<svg id="Layer_2" data-name="Layer 2" xmlns="http://www.w3.org/2000/svg" viewBox="0 0 962.18 912.73">
  <defs>
    <style>
      .cls-1 {
        fill: #e6e6e6;
      }

      .cls-1, .cls-2, .cls-3, .cls-4, .cls-5, .cls-6, .cls-7, .cls-8 {
        stroke-miterlimit: 10;
      }

      .cls-1, .cls-3, .cls-5, .cls-7 {
        stroke: #a3a3a3;
      }

      .cls-9 {
        fill: #000;
      }

      .cls-9, .cls-10, .cls-11, .cls-12 {
        stroke-width: 0px;
      }

      .cls-2, .cls-8 {
        fill: none;
        stroke: #000;
      }

      .cls-10, .cls-6 {
        fill: #a01236;
      }

      .cls-3 {
        fill: #e59aaf;
      }

      .cls-4 {
        stroke: #490415;
      }

      .cls-4, .cls-7 {
        fill: #490415;
      }

      .cls-11 {
        fill: #efefef;
      }

      .cls-12, .cls-5 {
        fill: #fff;
      }

      .cls-6 {
        stroke: #a01236;
      }

      .cls-8 {
        stroke-linecap: round;
        stroke-width: .75px;
      }
    </style>
  </defs>
  <g id="Layer_1-2" data-name="Layer 1">
    <rect class="cls-11" y="485.74" width="958.98" height="426.98" rx="7.32" ry="7.32"/>
    <rect class="cls-6" x="12.35" y="498.12" width="931.18" height="402.23" rx="7.32" ry="7.32"/>
    <rect class="cls-4" x="19.3" y="508.13" width="53.08" height="42.47" rx="5.28" ry="5.28"/>
    <rect class="cls-5" x="81.85" y="508.13" width="68.72" height="42.47" rx="5.28" ry="5.28"/>
    <rect class="cls-1" x="162.15" y="508.13" width="68.72" height="42.47" rx="5.28" ry="5.28"/>
    <rect class="cls-5" x="238.59" y="508.13" width="68.72" height="42.47" rx="5.28" ry="5.28"/>
    <rect class="cls-1" x="318.5" y="508.13" width="68.72" height="42.47" rx="5.28" ry="5.28"/>
    <rect class="cls-5" x="394.41" y="508.13" width="68.72" height="42.47" rx="5.28" ry="5.28"/>
    <rect class="cls-5" x="471.43" y="508.13" width="68.72" height="42.47" rx="5.28" ry="5.28"/>
    <rect class="cls-5" x="554.92" y="508.13" width="68.72" height="42.47" rx="5.28" ry="5.28"/>
    <rect class="cls-5" x="631.98" y="508.13" width="68.72" height="42.47" rx="5.28" ry="5.28"/>
    <rect class="cls-1" x="710.93" y="508.13" width="68.72" height="42.47" rx="5.28" ry="5.28"/>
    <rect class="cls-3" x="789.11" y="508.13" width="88.6" height="42.47" rx="5.28" ry="5.28"/>
    <rect class="cls-3" x="888.18" y="508.13" width="46.09" height="42.47" rx="5.28" ry="5.28"/>
    <rect class="cls-5" x="20.46" y="559.1" width="68.72" height="57.14" rx="5.28" ry="5.28"/>
    <rect class="cls-5" x="97.29" y="559.1" width="68.72" height="57.14" rx="5.28" ry="5.28"/>
    <rect class="cls-5" x="174.11" y="559.1" width="68.72" height="57.14" rx="5.28" ry="5.28"/>
    <rect class="cls-5" x="250.94" y="559.1" width="68.72" height="57.14" rx="5.28" ry="5.28"/>
    <rect class="cls-5" x="330.08" y="559.1" width="68.72" height="57.14" rx="5.28" ry="5.28"/>
    <rect class="cls-5" x="406.91" y="559.1" width="68.72" height="57.14" rx="5.28" ry="5.28"/>
    <rect class="cls-5" x="487.6" y="559.1" width="68.72" height="57.14" rx="5.28" ry="5.28"/>
    <rect class="cls-1" x="564.42" y="559.1" width="68.72" height="57.14" rx="5.28" ry="5.28"/>
    <rect class="cls-3" x="644.34" y="559.1" width="68.72" height="57.14" rx="5.28" ry="5.28"/>
    <rect class="cls-1" x="721.16" y="559.1" width="68.72" height="57.14" rx="5.28" ry="5.28"/>
    <path class="cls-5" d="M934.84,571.87v33.21c0,6.62-5.35,11.98-11.98,11.98h-111.57c-6.6,0-11.95-5.35-11.95-11.98v-33.21c0-6.6,5.35-11.95,11.95-11.95h111.57c6.62,0,11.98,5.35,11.98,11.95Z"/>
    <rect class="cls-3" x="22.01" y="626.37" width="113.12" height="57.14" rx="5.28" ry="5.28"/>
    <rect class="cls-1" x="150.56" y="626.37" width="68.72" height="57.14" rx="5.28" ry="5.28"/>
    <rect class="cls-1" x="229.95" y="626.37" width="68.72" height="57.14" rx="5.28" ry="5.28"/>
    <rect class="cls-1" x="312.71" y="626.37" width="68.72" height="57.14" rx="5.28" ry="5.28"/>
    <rect class="cls-5" x="394.41" y="626.37" width="68.72" height="57.14" rx="5.28" ry="5.28"/>
    <rect class="cls-1" x="474.47" y="626.37" width="72.19" height="57.14" rx="5.28" ry="5.28"/>
    <rect class="cls-5" x="557.86" y="626.37" width="68.72" height="57.14" rx="5.28" ry="5.28"/>
    <rect class="cls-5" x="636.8" y="626.37" width="68.72" height="57.14" rx="5.28" ry="5.28"/>
    <rect class="cls-5" x="721.16" y="626.37" width="84.23" height="57.14" rx="5.28" ry="5.28"/>
    <rect class="cls-1" x="19.69" y="693.65" width="142.46" height="57.14" rx="5.28" ry="5.28"/>
    <rect class="cls-5" x="173.34" y="693.65" width="68.72" height="57.14" rx="5.28" ry="5.28"/>
    <rect class="cls-5" x="250.17" y="693.65" width="68.72" height="57.14" rx="5.28" ry="5.28"/>
    <rect class="cls-1" x="329.31" y="693.65" width="68.72" height="57.14" rx="5.28" ry="5.28"/>
    <rect class="cls-3" x="406.14" y="693.65" width="68.72" height="57.14" rx="5.28" ry="5.28"/>
    <rect class="cls-5" x="486.82" y="693.65" width="68.72" height="57.14" rx="5.28" ry="5.28"/>
    <rect class="cls-5" x="563.65" y="693.65" width="68.72" height="57.14" rx="5.28" ry="5.28"/>
    <rect class="cls-5" x="643.57" y="693.65" width="68.72" height="57.14" rx="5.28" ry="5.28"/>
    <rect class="cls-5" x="720.39" y="693.65" width="68.72" height="57.14" rx="5.28" ry="5.28"/>
    <rect class="cls-5" x="798.38" y="693.65" width="68.72" height="57.14" rx="5.28" ry="5.28"/>
    <path class="cls-3" d="M936.97,638.76v33.18c0,2.65-2.31,67.29-2.31,67.29,0,6.6-5.35,11.95-11.98,11.95h-35.5c-6.61,0-11.98-5.36-11.98-11.98v-46.06c0-5.1-4.14-9.24-9.24-9.24h-35.56c-6.6,0-11.95-5.35-11.95-11.98v-33.18c0-6.62,5.35-11.98,11.95-11.98h94.6c6.6,0,11.95,5.35,11.95,11.98Z"/>
    <rect class="cls-1" x="22.01" y="760.93" width="128.56" height="57.14" rx="5.28" ry="5.28"/>
    <rect class="cls-1" x="162.15" y="760.93" width="68.72" height="57.14" rx="5.28" ry="5.28"/>
    <rect class="cls-1" x="238.59" y="760.93" width="68.72" height="57.14" rx="5.28" ry="5.28"/>
    <rect class="cls-5" x="318.5" y="760.93" width="68.72" height="57.14" rx="5.28" ry="5.28"/>
    <rect class="cls-5" x="398.8" y="760.93" width="68.72" height="57.14" rx="5.28" ry="5.28"/>
    <rect class="cls-1" x="477.95" y="760.93" width="68.72" height="57.14" rx="5.28" ry="5.28"/>
    <rect class="cls-5" x="555.16" y="760.93" width="68.72" height="57.14" rx="5.28" ry="5.28"/>
    <rect class="cls-1" x="631.98" y="760.93" width="68.72" height="57.14" rx="5.28" ry="5.28"/>
    <rect class="cls-7" x="710.93" y="760.93" width="68.72" height="57.14" rx="5.28" ry="5.28"/>
    <rect class="cls-3" x="708.77" y="829.67" width="68.72" height="57.14" rx="5.28" ry="5.28"/>
    <rect class="cls-5" x="789.88" y="760.93" width="147.09" height="57.14" rx="5.28" ry="5.28"/>
    <rect class="cls-4" x="20.46" y="828.21" width="103.85" height="57.14" rx="5.28" ry="5.28"/>
    <rect class="cls-5" x="138.6" y="828.21" width="68.72" height="57.14" rx="5.28" ry="5.28"/>
    <rect class="cls-5" x="219.28" y="828.21" width="84.16" height="57.14" rx="5.28" ry="5.28"/>
    <rect class="cls-3" x="318.22" y="829.67" width="319.27" height="57.14" rx="5.28" ry="5.28"/>
    <rect class="cls-5" x="641.09" y="828.21" width="60.13" height="57.14" rx="5.28" ry="5.28"/>
    <rect class="cls-1" x="784.48" y="828.21" width="60.85" height="57.14" rx="5.28" ry="5.28"/>
    <rect class="cls-1" x="855.51" y="828.21" width="79.91" height="57.14" rx="5.28" ry="5.28"/>
    <g>
      <path class="cls-9" d="M833.92,652.33v-10.77h7.33v2.08h-4.99v2.21h4.27v2.07h-4.27v2.33h4.99v2.08h-7.33Z"/>
      <path class="cls-9" d="M843.18,652.33v-8.1h2.28v1.38h.09c.29-.85.97-1.56,2.25-1.56,1.65,0,2.53,1.17,2.53,3.21v5.08h-2.28v-4.89c0-1.03-.29-1.54-1.13-1.54-.74,0-1.47.39-1.47,1.19v5.25h-2.28Z"/>
      <path class="cls-9" d="M855.22,652.33c-1.57,0-2.41-.82-2.41-2.36v-3.97h-1.14v-1.78h.57c.62,0,.8-.31.8-.86v-1.33h2.05v2.19h1.61v1.78h-1.61v4.55h1.48v1.77h-1.36Z"/>
      <path class="cls-9" d="M857.72,648.27c0-2.56,1.36-4.23,3.8-4.23,2.69,0,3.77,1.94,3.77,4.14v.68h-5.2v.12c0,1.07.57,1.74,1.79,1.74.96,0,1.48-.45,1.99-.97l1.14,1.42c-.72.84-1.91,1.34-3.4,1.34-2.49,0-3.89-1.65-3.89-4.25ZM860.09,647.39v.12h2.84v-.14c0-.99-.45-1.65-1.36-1.65s-1.48.66-1.48,1.67Z"/>
      <path class="cls-9" d="M866.91,652.33v-8.1h2.28v1.76h.08c.19-.89.8-1.76,2.07-1.76h.4v2.13h-.57c-1.33,0-1.98.29-1.98,1.24v4.74h-2.28Z"/>
    </g>
    <g>
      <path class="cls-9" d="M37.19,637.89v8.69h-2.35v-8.69h-2.92v-2.08h8.18v2.08h-2.92Z"/>
      <path class="cls-9" d="M46.51,646.58c-.82,0-1.4-.56-1.54-1.42h-.09c-.25,1.05-1.14,1.61-2.38,1.61-1.62,0-2.52-.96-2.52-2.36,0-1.71,1.33-2.53,3.47-2.53h1.28v-.51c0-.79-.39-1.28-1.34-1.28s-1.39.46-1.74.96l-1.36-1.2c.65-.96,1.57-1.54,3.27-1.54,2.28,0,3.46,1.05,3.46,2.96v3.55h.76v1.77h-1.26ZM44.73,644.13v-.96h-1.11c-.88,0-1.34.32-1.34.91v.23c0,.58.39.86,1.07.86.76,0,1.39-.31,1.39-1.05Z"/>
      <path class="cls-9" d="M49.31,635.16h2.28v4.68h.08c.23-.9,1.13-1.54,2.18-1.54,2.05,0,3.12,1.48,3.12,4.23s-1.06,4.25-3.12,4.25c-1.05,0-1.94-.66-2.18-1.54h-.08v1.36h-2.28v-11.42ZM54.58,643.23v-1.4c0-1.02-.63-1.68-1.5-1.68s-1.5.45-1.5,1.19v2.39c0,.74.63,1.19,1.5,1.19s1.5-.66,1.5-1.68Z"/>
    </g>
    <g>
      <path class="cls-9" d="M429.36,858.95l1.54-1.56c.72.82,1.65,1.24,2.7,1.24,1.14,0,1.7-.51,1.7-1.3,0-.58-.25-1.02-1.25-1.16l-1.07-.14c-2.27-.29-3.3-1.4-3.3-3.21,0-1.93,1.51-3.27,4.04-3.27,1.62,0,2.86.54,3.73,1.51l-1.56,1.57c-.51-.6-1.2-1.02-2.32-1.02-1.05,0-1.56.4-1.56,1.05,0,.74.39,1.02,1.28,1.16l1.07.17c2.21.35,3.27,1.34,3.27,3.2,0,2.07-1.51,3.5-4.2,3.5-1.88,0-3.17-.73-4.09-1.75Z"/>
      <path class="cls-9" d="M439.47,852.41h2.28v1.36h.08c.23-.9,1.13-1.54,2.18-1.54,2.05,0,3.12,1.48,3.12,4.23s-1.07,4.25-3.12,4.25c-1.05,0-1.94-.66-2.18-1.54h-.08v4.45h-2.28v-11.19ZM444.75,857.16v-1.4c0-1.02-.63-1.68-1.5-1.68s-1.5.45-1.5,1.19v2.39c0,.74.63,1.19,1.5,1.19s1.5-.66,1.5-1.68Z"/>
      <path class="cls-9" d="M454.85,860.51c-.82,0-1.4-.56-1.54-1.42h-.09c-.25,1.05-1.14,1.61-2.38,1.61-1.62,0-2.52-.96-2.52-2.36,0-1.71,1.33-2.53,3.47-2.53h1.28v-.51c0-.79-.39-1.28-1.34-1.28s-1.39.46-1.74.96l-1.36-1.2c.65-.96,1.57-1.54,3.27-1.54,2.28,0,3.46,1.05,3.46,2.96v3.55h.76v1.77h-1.26ZM453.08,858.06v-.96h-1.11c-.88,0-1.34.32-1.34.91v.23c0,.58.39.86,1.07.86.76,0,1.39-.31,1.39-1.05Z"/>
      <path class="cls-9" d="M457.14,856.45c0-2.59,1.34-4.23,3.78-4.23,1.64,0,2.76.79,3.24,2.11l-1.85.8c-.14-.62-.58-1.11-1.39-1.11-.93,0-1.4.66-1.4,1.68v1.51c0,1.02.48,1.67,1.4,1.67s1.28-.56,1.51-1.2l1.78.77c-.54,1.54-1.7,2.24-3.29,2.24-2.44,0-3.78-1.65-3.78-4.25Z"/>
      <path class="cls-9" d="M465.05,856.45c0-2.56,1.36-4.23,3.8-4.23,2.69,0,3.77,1.94,3.77,4.14v.68h-5.2v.12c0,1.07.57,1.74,1.79,1.74.96,0,1.48-.45,1.99-.97l1.14,1.42c-.72.84-1.91,1.34-3.4,1.34-2.49,0-3.89-1.65-3.89-4.25ZM467.41,855.57v.12h2.84v-.14c0-.99-.45-1.65-1.36-1.65s-1.48.66-1.48,1.67Z"/>
      <path class="cls-9" d="M474.24,849.09h2.28v4.68h.08c.23-.9,1.13-1.54,2.18-1.54,2.05,0,3.12,1.48,3.12,4.23s-1.07,4.25-3.12,4.25c-1.05,0-1.94-.66-2.18-1.54h-.08v1.36h-2.28v-11.42ZM479.52,857.16v-1.4c0-1.02-.63-1.68-1.5-1.68s-1.5.45-1.5,1.19v2.39c0,.74.63,1.19,1.5,1.19s1.5-.66,1.5-1.68Z"/>
      <path class="cls-9" d="M489.62,860.51c-.82,0-1.4-.56-1.54-1.42h-.09c-.25,1.05-1.14,1.61-2.38,1.61-1.62,0-2.52-.96-2.52-2.36,0-1.71,1.33-2.53,3.47-2.53h1.28v-.51c0-.79-.39-1.28-1.34-1.28s-1.39.46-1.74.96l-1.36-1.2c.65-.96,1.57-1.54,3.27-1.54,2.28,0,3.46,1.05,3.46,2.96v3.55h.76v1.77h-1.26ZM487.84,858.06v-.96h-1.11c-.88,0-1.34.32-1.34.91v.23c0,.58.39.86,1.07.86.76,0,1.39-.31,1.39-1.05Z"/>
      <path class="cls-9" d="M492.42,860.51v-8.1h2.28v1.76h.08c.19-.89.8-1.76,2.07-1.76h.4v2.13h-.57c-1.33,0-1.98.29-1.98,1.24v4.74h-2.28Z"/>
    </g>
    <g>
      <path class="cls-12" d="M58.79,856.55c0-2.59,1.34-4.23,3.78-4.23,1.64,0,2.76.79,3.24,2.11l-1.85.8c-.14-.62-.58-1.11-1.39-1.11-.93,0-1.4.66-1.4,1.68v1.51c0,1.02.48,1.67,1.4,1.67s1.28-.56,1.51-1.2l1.78.77c-.54,1.54-1.7,2.24-3.29,2.24-2.44,0-3.78-1.65-3.78-4.25Z"/>
      <path class="cls-12" d="M70.12,860.61c-1.57,0-2.41-.82-2.41-2.36v-3.97h-1.14v-1.78h.57c.62,0,.8-.31.8-.86v-1.33h2.05v2.19h1.61v1.78h-1.61v4.55h1.48v1.77h-1.36Z"/>
      <path class="cls-12" d="M73.2,860.61v-8.1h2.28v1.76h.08c.19-.89.8-1.76,2.07-1.76h.4v2.13h-.57c-1.33,0-1.98.29-1.98,1.24v4.74h-2.28Z"/>
      <path class="cls-12" d="M81.71,860.61c-1.56,0-2.27-.79-2.27-2.22v-9.2h2.28v9.65h1.02v1.77h-1.03Z"/>
    </g>
    <g>
      <path class="cls-12" d="M32.48,528.55c0-2.56,1.36-4.23,3.8-4.23,2.69,0,3.77,1.94,3.77,4.14v.68h-5.2v.12c0,1.07.57,1.74,1.79,1.74.96,0,1.48-.45,1.99-.97l1.14,1.42c-.72.84-1.91,1.34-3.4,1.34-2.49,0-3.89-1.65-3.89-4.25ZM34.85,527.67v.12h2.84v-.14c0-.99-.45-1.65-1.36-1.65s-1.48.66-1.48,1.67Z"/>
      <path class="cls-12" d="M41.01,531.34l1.34-1.36c.57.63,1.27,1.03,2.15,1.03s1.2-.29,1.2-.77c0-.4-.25-.6-.82-.68l-.88-.11c-1.84-.23-2.73-1.03-2.73-2.5,0-1.56,1.22-2.64,3.15-2.64,1.7,0,2.49.46,3.3,1.26l-1.31,1.34c-.51-.51-1.19-.84-1.87-.84-.77,0-1.08.28-1.08.68,0,.43.19.66.85.76l.91.12c1.76.23,2.67,1.03,2.67,2.44,0,1.56-1.39,2.7-3.47,2.7-1.56,0-2.58-.52-3.41-1.45Z"/>
      <path class="cls-12" d="M48.95,528.55c0-2.59,1.34-4.23,3.78-4.23,1.64,0,2.76.79,3.24,2.11l-1.85.8c-.14-.62-.58-1.11-1.39-1.11-.93,0-1.4.66-1.4,1.68v1.51c0,1.02.48,1.67,1.4,1.67s1.28-.56,1.51-1.2l1.78.77c-.54,1.54-1.7,2.24-3.29,2.24-2.44,0-3.78-1.65-3.78-4.25Z"/>
    </g>
    <path class="cls-9" d="M735.55,849.42l17.88.14c.81,0,1.31.88.91,1.59l-8.83,15.38c-.41.71-1.42.71-1.83,0l-9.05-15.52c-.41-.71.1-1.6.92-1.59Z"/>
    <path class="cls-12" d="M735.55,795.35l17.88-.14c.81,0,1.31-.88.91-1.59l-8.83-15.38c-.41-.71-1.42-.71-1.83,0l-9.05,15.52c-.41.71.1,1.6.92,1.59Z"/>
    <path class="cls-9" d="M675.8,846.61l-.14,17.88c0,.81-.88,1.31-1.59.91l-15.38-8.83c-.71-.41-.71-1.42,0-1.83l15.52-9.05c.71-.41,1.6.1,1.59.92Z"/>
    <path class="cls-9" d="M805.4,863.92l.14-17.88c0-.81.88-1.31,1.59-.91l15.38,8.83c.71.41.71,1.42,0,1.83l-15.52,9.05c-.71.41-1.6-.1-1.59-.92Z"/>
    <g>
      <line class="cls-8" x1="106.92" y1="655.36" x2="118.08" y2="655.64"/>
      <polyline class="cls-8" points="114.7 650.19 119.42 655.64 114.7 660.37"/>
    </g>
    <g>
      <line class="cls-8" x1="115.32" y1="669.05" x2="105.01" y2="669.32"/>
      <polyline class="cls-8" points="108.4 663.87 103.68 669.32 108.4 674.04"/>
    </g>
    <line class="cls-8" x1="122.39" y1="648.24" x2="122.39" y2="662.12"/>
    <line class="cls-8" x1="100.17" y1="663.79" x2="100.17" y2="674.43"/>
    <g>
      <path class="cls-2" d="M921.52,717.5v5.59c0,2.1-1.7,3.8-3.8,3.8h-17.05"/>
      <polyline class="cls-2" points="905.21 721.1 898.98 727.35 905.47 732.67"/>
    </g>
    <g>
      <path class="cls-10" d="M78.57,381.82l-1.79-11.63,47.35-42.73,3.06,19.92-28.73,24.95.14.94,34.91,15.16,3.08,20.05-58.02-26.66Z"/>
      <path class="cls-10" d="M144.34,305.74l19.79-3.04,6.25,40.64.8-.12c1.41-7.74,6.34-14.8,17.44-16.51,14.3-2.2,23.49,6.79,26.2,24.44l6.77,43.99-19.79,3.04-6.52-42.38c-1.38-8.96-4.6-12.98-11.82-11.87-6.42.99-12.19,5.3-11.12,12.25l6.99,45.46-19.79,3.04-15.22-98.94Z"/>
      <path class="cls-10" d="M242.58,391.91l-2.49-16.18,25.13-3.87-9.62-62.57-1.2.18-15.16,27.79-14.38-8.05,17.8-32.85,30.75-4.73,11.87,77.14,19.79-3.04,2.49,16.18-64.98,10Z"/>
      <path class="cls-10" d="M320.96,359.59l28.73-24.95-.14-.94-34.91-15.16-3.06-19.92,57.98,26.39,1.79,11.63-47.31,43-3.08-20.05Z"/>
    </g>
    <g>
      <path class="cls-10" d="M597.74,133.88l-1.79-11.63,47.35-42.73,3.06,19.92-28.73,24.95.14.94,34.91,15.16,3.08,20.05-58.02-26.66Z"/>
      <path class="cls-10" d="M663.66,69.54l-.45-2.94c-.86-5.62,1.97-10.29,10-11.53,8.02-1.23,12.14,2.38,13,7.99l.45,2.94c.86,5.62-1.97,10.29-10,11.53s-12.14-2.38-13-7.99ZM667.92,86.54l19.79-3.04,10.8,70.19-19.79,3.04-10.8-70.19Z"/>
      <path class="cls-10" d="M716.96,150.85l-10.8-70.19,19.79-3.04,1.83,11.9.8-.12c1.39-7.88,6.35-14.8,16.77-16.4,9.63-1.48,17.34,2.4,21.83,11.15l.4-.06c1.33-8.28,8.52-15.82,19.21-17.46,13.5-2.08,22.55,6.93,25.27,24.58l6.77,43.99-19.79,3.04-6.52-42.38c-1.4-9.09-5.13-12.9-11.68-11.89-5.88.9-11.12,5.13-10.05,12.08l6.99,45.46-19.79,3.04-6.52-42.38c-1.4-9.09-5.27-12.88-11.68-11.89-5.75.88-11.12,5.13-10.05,12.08l6.99,45.46-19.79,3.04Z"/>
      <path class="cls-10" d="M867.85,156.66c-24.33,3.74-34.24-1.03-35.8-11.19-1.19-7.76,3.05-13.06,11.05-15.38l-.23-1.47c-6.87-.17-11.13-4.72-12.05-10.74-1.13-7.35,4.84-12.11,11.19-14.45l-.08-.54c-9.02-2.58-14.25-9.03-15.65-18.12-2.18-14.17,6.25-25.19,26.44-28.29,4.41-.68,8.48-.89,12.11-.49l-.41-2.67c-1.13-7.35,2.25-11.16,8.94-12.19l11.1-1.71,2.26,14.71-15.51,2.38.12.8c8.75,2.62,13.74,9.25,15.12,18.2,2.16,14.04-6.18,24.77-26.5,27.89-4.68.72-8.91.82-12.66.44-1.69,1.49-2.58,3.68-2.21,6.09.51,3.34,3.23,4.98,9.25,4.05l20.32-3.13c17.11-2.63,25.62,3.72,27.61,16.69,2.28,14.84-5.78,24.7-34.39,29.11ZM868.09,79.02l-.25-1.6c-.95-6.15-5.36-9.03-13.11-7.84-7.75,1.19-11.1,5.27-10.15,11.42l.25,1.6c.95,6.15,5.36,9.03,13.11,7.84,7.75-1.19,11.1-5.26,10.15-11.41ZM872.28,128.47l-24.07,3.7c-1.47,2-1.9,4.54-1.57,6.67.78,5.08,5.16,6.87,15.86,5.22l8.02-1.23c10.7-1.64,14.33-4.67,13.55-9.75-.62-4.01-3.91-5.83-11.8-4.62Z"/>
      <path class="cls-10" d="M911.79,100.63l28.73-24.95-.14-.94-34.9-15.16-3.06-19.92,57.98,26.39,1.79,11.63-47.31,43-3.08-20.05Z"/>
    </g>
    <g>
      <path class="cls-10" d="M371.59,427.17v-6.04l27.35-17.98v10.34l-16.52,10.41v.49l16.52,10.41v10.41l-27.35-18.05Z"/>
      <path class="cls-10" d="M410.89,408.63h10.28v6.11h.35c1.04-4.03,5.07-6.94,9.79-6.94,9.23,0,14.02,6.67,14.02,19.02s-4.79,19.09-14.02,19.09c-4.72,0-8.75-2.99-9.79-6.94h-.35v20h-10.28v-50.33ZM434.64,430.01v-6.32c0-4.58-2.85-7.57-6.74-7.57s-6.73,2.01-6.73,5.35v10.76c0,3.33,2.85,5.35,6.73,5.35s6.74-2.99,6.74-7.57Z"/>
      <path class="cls-10" d="M455.47,434.8l16.52-10.41v-.49l-16.52-10.41v-10.34l27.35,17.91v6.04l-27.35,18.12v-10.41Z"/>
    </g>
    <g>
      <path class="cls-10" d="M41.58,33.46v-6.04l27.35-17.98v10.34l-16.52,10.41v.49l16.52,10.41v10.41l-27.35-18.05Z"/>
      <path class="cls-10" d="M80.88,0h10.28v21.04h.35c1.04-4.03,5.07-6.94,9.79-6.94,9.23,0,14.02,6.67,14.02,19.02s-4.79,19.09-14.02,19.09c-4.72,0-8.75-2.99-9.79-6.94h-.35v6.11h-10.28V0ZM104.62,36.31v-6.32c0-4.58-2.85-7.57-6.74-7.57s-6.73,2.01-6.73,5.35v10.76c0,3.33,2.85,5.35,6.73,5.35s6.74-2.99,6.74-7.57Z"/>
      <path class="cls-10" d="M144.61,45.27h-.35c-1.25,3.68-4.24,6.94-10.21,6.94-7.43,0-11.39-5.21-11.39-14.37V14.93h10.28v22.01c0,4.44,1.46,6.94,5.21,6.94,3.19,0,6.46-1.81,6.46-5.28V14.93h10.27v36.45h-10.27v-6.11Z"/>
      <path class="cls-10" d="M177.25,51.38c-7.08,0-10.83-3.68-10.83-10.62v-17.84h-5.14v-7.98h2.57c2.78,0,3.61-1.39,3.61-3.89v-5.97h9.23v9.86h7.22v7.98h-7.22v20.48h6.67v7.98h-6.11Z"/>
      <path class="cls-10" d="M203.49,51.38c-7.08,0-10.83-3.68-10.83-10.62v-17.84h-5.14v-7.98h2.57c2.78,0,3.61-1.39,3.61-3.89v-5.97h9.23v9.86h7.22v7.98h-7.22v20.48h6.67v7.98h-6.11Z"/>
      <path class="cls-10" d="M214.74,33.12c0-11.73,6.39-19.02,17.08-19.02s17.08,7.29,17.08,19.02-6.39,19.09-17.08,19.09-17.08-7.36-17.08-19.09ZM238.21,36.87v-7.43c0-4.58-2.36-7.22-6.39-7.22s-6.39,2.64-6.39,7.22v7.43c0,4.58,2.36,7.22,6.39,7.22s6.39-2.64,6.39-7.22Z"/>
      <path class="cls-10" d="M256.19,51.38V14.93h10.28v6.18h.42c1.32-3.82,4.37-7.01,10.14-7.01,7.43,0,11.39,5.28,11.39,14.44v22.84h-10.28v-22.01c0-4.65-1.32-6.94-5.07-6.94-3.33,0-6.6,1.74-6.6,5.35v23.61h-10.28Z"/>
      <path class="cls-10" d="M299.94,41.1l16.52-10.41v-.49l-16.52-10.41v-10.34l27.35,17.91v6.04l-27.35,18.12v-10.41Z"/>
    </g>
    <g>
      <path class="cls-10" d="M306.88,138.97l2.29-11.54,59.09-24-3.92,19.77-35.53,13.64-.18.93,27.63,26.17-3.95,19.9-45.44-44.86Z"/>
      <path class="cls-10" d="M426.67,198.31c-7.03-1.39-11.13-7.17-10.85-14.84l-.8-.16c-3.91,8.6-12.55,11.85-23.17,9.75-13.93-2.76-20-12.52-17.6-24.59,2.92-14.73,15.73-19.5,34.17-15.84l11.01,2.18.87-4.38c1.34-6.77-1.13-11.67-9.36-13.3-7.83-1.55-12.73,1.61-16.62,5.25l-9.62-12.67c7.21-7.12,16.17-10.59,30.76-7.69,19.64,3.89,27.93,14.92,24.67,31.37l-6.05,30.52,6.5,1.29-3.03,15.26-10.88-2.16ZM415.6,174.18l1.63-8.23-9.55-1.89c-7.56-1.5-12.1.5-13.1,5.54l-.39,1.99c-1,5.04,1.84,8.09,7.68,9.25,6.5,1.29,12.47-.29,13.73-6.65Z"/>
      <path class="cls-10" d="M459.1,184.33l35.53-13.64.19-.93-27.63-26.17,3.92-19.77,45.49,44.6-2.29,11.54-59.15,24.26,3.95-19.9Z"/>
    </g>
    <g>
      <path class="cls-10" d="M480.74,303.47v-6.78l31.09-20.19v11.62l-18.78,11.7v.55l18.78,11.7v11.7l-31.09-20.27Z"/>
      <path class="cls-10" d="M556.01,323.58c-4.18,0-7.18-2.81-7.89-7.17h-.47c-1.26,5.3-5.84,8.11-12.15,8.11-8.29,0-12.86-4.83-12.86-11.93,0-8.65,6.79-12.79,17.75-12.79h6.55v-2.57c0-3.98-1.97-6.47-6.87-6.47s-7.1,2.34-8.92,4.83l-6.94-6.08c3.31-4.83,8.05-7.8,16.73-7.8,11.68,0,17.67,5.3,17.67,14.97v17.93h3.87v8.97h-6.47ZM546.94,311.19v-4.83h-5.68c-4.5,0-6.86,1.64-6.86,4.6v1.17c0,2.96,1.97,4.37,5.44,4.37,3.87,0,7.1-1.56,7.1-5.3Z"/>
      <path class="cls-10" d="M570.28,323.58v-40.94h11.68v8.89h.39c.95-4.52,4.1-8.89,10.57-8.89h2.05v10.76h-2.92c-6.79,0-10.1,1.48-10.1,6.24v23.94h-11.68Z"/>
      <path class="cls-10" d="M616.99,323.58c-8.05,0-12.31-4.13-12.31-11.93v-20.04h-5.84v-8.97h2.92c3.16,0,4.1-1.56,4.1-4.37v-6.71h10.49v11.07h8.21v8.97h-8.21v23h7.58v8.97h-6.94Z"/>
      <path class="cls-10" d="M631.74,272.59v-1.71c0-3.28,2.05-5.69,6.79-5.69s6.79,2.42,6.79,5.69v1.71c0,3.28-2.05,5.69-6.79,5.69s-6.79-2.42-6.79-5.69ZM632.69,282.65h11.68v40.94h-11.68v-40.94Z"/>
      <path class="cls-10" d="M652.65,303.08c0-13.1,6.86-21.36,19.33-21.36,8.36,0,14.12,3.98,16.57,10.68l-9.47,4.05c-.71-3.12-3-5.61-7.1-5.61-4.73,0-7.18,3.35-7.18,8.5v7.64c0,5.15,2.45,8.42,7.18,8.42s6.55-2.81,7.73-6.08l9.07,3.9c-2.76,7.8-8.68,11.31-16.81,11.31-12.47,0-19.33-8.34-19.33-21.44Z"/>
      <path class="cls-10" d="M707.64,323.58c-7.97,0-11.6-3.98-11.6-11.23v-46.47h11.68v48.73h5.21v8.97h-5.29Z"/>
      <path class="cls-10" d="M717.34,303.08c0-12.94,6.94-21.36,19.41-21.36,13.73,0,19.25,9.82,19.25,20.9v3.43h-26.59v.62c0,5.38,2.92,8.81,9.15,8.81,4.89,0,7.58-2.26,10.18-4.91l5.84,7.17c-3.71,4.21-9.78,6.78-17.36,6.78-12.7,0-19.88-8.34-19.88-21.44ZM729.42,298.63v.62h14.52v-.7c0-4.99-2.29-8.34-6.94-8.34s-7.57,3.35-7.57,8.42Z"/>
      <path class="cls-10" d="M766.97,312.04l18.78-11.7v-.55l-18.78-11.7v-11.62l31.09,20.12v6.78l-31.09,20.35v-11.7Z"/>
    </g>
  </g>
</svg>