<?xml version="1.0" encoding="UTF-8"?>
<svg id="Layer_2" data-name="Layer 2" xmlns="http://www.w3.org/2000/svg" viewBox="0 0 605.51 741.77">
  <defs>
    <style>
      .cls-1 {
        fill: none;
      }

      .cls-1, .cls-2, .cls-3 {
        stroke: #a01236;
        stroke-miterlimit: 10;
        stroke-width: 5px;
      }

      .cls-2, .cls-4 {
        fill: #fff;
      }

      .cls-5, .cls-4 {
        stroke-width: 0px;
      }

      .cls-5, .cls-3 {
        fill: #a01236;
      }
    </style>
  </defs>
  <g id="Layer_1-2" data-name="Layer 1">
    <rect class="cls-1" x="2.5" y="3.63" width="600.51" height="735.64" rx="35.11" ry="35.11"/>
    <path class="cls-3" d="M28.88,2.5h547.74c14.56,0,26.38,11.82,26.38,26.38v37.36H2.5V28.88C2.5,14.32,14.32,2.5,28.88,2.5Z"/>
    <rect class="cls-2" x="41.31" y="31.01" width="93.45" height="15.32"/>
    <rect class="cls-2" x="178.41" y="26.42" width="101.11" height="19.91"/>
    <rect class="cls-2" x="317.05" y="31.01" width="108" height="15.32"/>
    <rect class="cls-1" x="31.35" y="91.52" width="278.11" height="180.77"/>
    <rect class="cls-2" x="228.97" y="236.29" width="285.7" height="185.36"/>
    <rect class="cls-2" x="353.59" y="451.52" width="198.38" height="105.7"/>
    <rect class="cls-2" x="24.46" y="449.99" width="285" height="21.45"/>
    <rect class="cls-2" x="24.46" y="492.12" width="284.94" height="24.51"/>
    <rect class="cls-2" x="24.46" y="531.95" width="284.94" height="29.11"/>
    <path class="cls-1" d="M2.5,602.42h600.51v107.36c0,16.28-13.21,29.49-29.49,29.49H31.99c-16.28,0-29.49-13.21-29.49-29.49v-107.36h0Z"/>
    <rect class="cls-2" x="229.35" y="660.89" width="130.21" height="19.91"/>
    <rect class="cls-2" x="390.97" y="660.89" width="130.21" height="19.91"/>
    <rect class="cls-2" x="74.24" y="660.89" width="130.21" height="19.91"/>
    <rect class="cls-4" x="277.65" y="281.96" width="186.63" height="103.36"/>
    <g>
      <path class="cls-5" d="M278.34,336v-6.29l28.51-18.74v10.78l-17.22,10.85v.51l17.22,10.85v10.85l-28.51-18.81Z"/>
      <path class="cls-5" d="M318.42,307.35v-1.59c0-3.04,1.88-5.28,6.22-5.28s6.22,2.24,6.22,5.28v1.59c0,3.04-1.88,5.28-6.22,5.28s-6.22-2.24-6.22-5.28ZM319.29,316.68h10.71v37.99h-10.71v-37.99Z"/>
      <path class="cls-5" d="M339.98,354.67v-37.99h10.71v6.44h.43c1.38-4.05,4.56-7.31,10.2-7.31,5.21,0,8.97,2.68,10.64,7.67h.22c1.38-4.27,5.79-7.67,11.58-7.67,7.31,0,11.36,5.5,11.36,15.05v23.81h-10.71v-22.94c0-4.92-1.66-7.24-5.21-7.24-3.18,0-6.29,1.81-6.29,5.57v24.6h-10.71v-22.94c0-4.92-1.74-7.24-5.21-7.24-3.11,0-6.3,1.81-6.3,5.57v24.6h-10.71Z"/>
      <path class="cls-5" d="M419.28,370.01c-13.17,0-18.02-3.33-18.02-8.83,0-4.2,2.68-6.66,7.09-7.24v-.8c-3.62-.65-5.5-3.4-5.5-6.66,0-3.98,3.55-6,7.09-6.73v-.29c-4.56-2.1-6.8-5.93-6.8-10.85,0-7.67,5.35-12.81,16.28-12.81,2.39,0,4.56.22,6.44.72v-1.45c0-3.98,2.1-5.72,5.72-5.72h6.01v7.96h-8.39v.43c4.41,2.1,6.51,6.01,6.51,10.85,0,7.6-5.28,12.59-16.28,12.59-2.53,0-4.78-.29-6.73-.8-1.01.65-1.66,1.74-1.66,3.04,0,1.81,1.3,2.89,4.56,2.89h11c9.26,0,13.24,4.05,13.24,11.07,0,8.03-5.07,12.59-20.55,12.59ZM423.91,355.46h-13.02c-.94.94-1.38,2.24-1.38,3.4,0,2.75,2.17,4.05,7.96,4.05h4.34c5.79,0,7.96-1.3,7.96-4.05,0-2.17-1.59-3.4-5.86-3.4ZM425.72,328.98v-.87c0-3.33-2.1-5.21-6.29-5.21s-6.3,1.88-6.3,5.21v.87c0,3.33,2.1,5.21,6.3,5.21s6.29-1.88,6.29-5.21Z"/>
      <path class="cls-5" d="M447.06,343.96l17.22-10.85v-.51l-17.22-10.85v-10.78l28.51,18.67v6.29l-28.51,18.88v-10.85Z"/>
    </g>
    <g>
      <path class="cls-5" d="M72.82,175.51v-6.29l28.51-18.74v10.78l-17.22,10.85v.51l17.22,10.85v10.85l-28.51-18.81Z"/>
      <path class="cls-5" d="M112.9,146.85v-1.59c0-3.04,1.88-5.28,6.22-5.28s6.22,2.24,6.22,5.28v1.59c0,3.04-1.88,5.28-6.22,5.28s-6.22-2.24-6.22-5.28ZM113.77,156.19h10.71v37.99h-10.71v-37.99Z"/>
      <path class="cls-5" d="M134.46,194.17v-37.99h10.71v6.44h.43c1.38-4.05,4.56-7.31,10.2-7.31,5.21,0,8.97,2.68,10.64,7.67h.22c1.38-4.27,5.79-7.67,11.58-7.67,7.31,0,11.36,5.5,11.36,15.05v23.81h-10.71v-22.94c0-4.92-1.66-7.24-5.21-7.24-3.18,0-6.29,1.81-6.29,5.57v24.6h-10.71v-22.94c0-4.92-1.74-7.24-5.21-7.24-3.11,0-6.3,1.81-6.3,5.57v24.6h-10.71Z"/>
      <path class="cls-5" d="M213.77,209.51c-13.17,0-18.02-3.33-18.02-8.83,0-4.2,2.68-6.66,7.09-7.24v-.8c-3.62-.65-5.5-3.4-5.5-6.66,0-3.98,3.55-6,7.09-6.73v-.29c-4.56-2.1-6.8-5.93-6.8-10.85,0-7.67,5.35-12.81,16.28-12.81,2.39,0,4.56.22,6.44.72v-1.45c0-3.98,2.1-5.72,5.72-5.72h6.01v7.96h-8.39v.43c4.41,2.1,6.51,6.01,6.51,10.85,0,7.6-5.28,12.59-16.28,12.59-2.53,0-4.78-.29-6.73-.8-1.01.65-1.66,1.74-1.66,3.04,0,1.81,1.3,2.89,4.56,2.89h11c9.26,0,13.24,4.05,13.24,11.07,0,8.03-5.07,12.59-20.55,12.59ZM218.4,194.97h-13.02c-.94.94-1.38,2.24-1.38,3.4,0,2.75,2.17,4.05,7.96,4.05h4.34c5.79,0,7.96-1.3,7.96-4.05,0-2.17-1.59-3.4-5.86-3.4ZM220.21,168.49v-.87c0-3.33-2.1-5.21-6.29-5.21s-6.3,1.88-6.3,5.21v.87c0,3.33,2.1,5.21,6.3,5.21s6.29-1.88,6.29-5.21Z"/>
      <path class="cls-5" d="M241.55,183.47l17.22-10.85v-.51l-17.22-10.85v-10.78l28.51,18.67v6.29l-28.51,18.88v-10.85Z"/>
    </g>
    <g>
      <path class="cls-5" d="M448.71,105.04v-3.48l15.78-10.37v5.97l-9.53,6.01v.28l9.53,6.01v6.01l-15.78-10.41Z"/>
      <path class="cls-5" d="M471.38,85.73h5.93v12.14h.2c.6-2.32,2.92-4,5.65-4,5.33,0,8.09,3.84,8.09,10.97s-2.76,11.01-8.09,11.01c-2.72,0-5.05-1.72-5.65-4h-.2v3.52h-5.93v-29.64ZM485.08,106.68v-3.65c0-2.64-1.64-4.37-3.88-4.37s-3.89,1.16-3.89,3.08v6.21c0,1.92,1.64,3.08,3.89,3.08s3.88-1.72,3.88-4.37Z"/>
      <path class="cls-5" d="M494.42,104.84c0-6.77,3.68-10.97,9.85-10.97s9.85,4.21,9.85,10.97-3.68,11.01-9.85,11.01-9.85-4.25-9.85-11.01ZM507.96,107v-4.29c0-2.64-1.36-4.17-3.69-4.17s-3.68,1.52-3.68,4.17v4.29c0,2.64,1.36,4.17,3.68,4.17s3.69-1.52,3.69-4.17Z"/>
      <path class="cls-5" d="M531.23,111.85h-.2c-.6,2.28-2.92,4-5.65,4-5.33,0-8.09-3.88-8.09-11.01s2.76-10.97,8.09-10.97c2.72,0,5.05,1.68,5.65,4h.2v-12.14h5.93v29.64h-5.93v-3.52ZM531.23,107.96v-6.21c0-1.92-1.64-3.08-3.88-3.08s-3.89,1.72-3.89,4.37v3.65c0,2.64,1.64,4.37,3.89,4.37s3.88-1.16,3.88-3.08Z"/>
      <path class="cls-5" d="M555.55,94.34h5.53l-8.09,24.27c-1.08,3.25-2.84,4.77-6.45,4.77h-3.69v-4.61h3.97l.72-2.32-7.37-22.11h5.89l3.08,9.81,1.52,6.09h.24l1.56-6.09,3.08-9.81Z"/>
      <path class="cls-5" d="M565.44,109.44l9.53-6.01v-.28l-9.53-6.01v-5.97l15.78,10.33v3.48l-15.78,10.45v-6.01Z"/>
    </g>
    <g>
      <path class="cls-4" d="M466.96,39.62v-2.26l10.25-6.73v3.88l-6.19,3.9v.18l6.19,3.9v3.9l-10.25-6.76Z"/>
      <path class="cls-4" d="M481.68,27.09h3.85v7.9h.16c.49-1.43,1.64-2.63,3.8-2.63,2.78,0,4.26,1.98,4.26,5.41v8.55h-3.85v-8.24c0-1.74-.49-2.6-1.9-2.6-1.25,0-2.47.65-2.47,2v8.84h-3.85v-19.24Z"/>
      <path class="cls-4" d="M496.32,39.49c0-4.32,2.29-7.12,6.4-7.12,4.52,0,6.34,3.28,6.34,6.97v1.14h-8.76v.21c0,1.79.96,2.94,3.02,2.94,1.61,0,2.5-.75,3.35-1.64l1.92,2.39c-1.22,1.4-3.22,2.26-5.72,2.26-4.19,0-6.55-2.78-6.55-7.15ZM500.3,38.01v.21h4.78v-.23c0-1.66-.75-2.78-2.29-2.78s-2.5,1.12-2.5,2.81Z"/>
      <path class="cls-4" d="M521.89,46.33c-1.38,0-2.37-.94-2.6-2.39h-.16c-.42,1.77-1.92,2.71-4,2.71-2.73,0-4.24-1.61-4.24-3.98,0-2.89,2.24-4.26,5.85-4.26h2.16v-.86c0-1.33-.65-2.16-2.26-2.16s-2.34.78-2.94,1.61l-2.29-2.03c1.09-1.61,2.65-2.6,5.51-2.6,3.85,0,5.82,1.77,5.82,4.99v5.98h1.27v2.99h-2.13ZM518.9,42.2v-1.61h-1.87c-1.48,0-2.26.55-2.26,1.53v.39c0,.99.65,1.46,1.79,1.46,1.27,0,2.34-.52,2.34-1.77Z"/>
      <path class="cls-4" d="M534.97,44.04h-.13c-.39,1.48-1.9,2.6-3.67,2.6-3.46,0-5.25-2.52-5.25-7.15s1.79-7.12,5.25-7.12c1.77,0,3.28,1.09,3.67,2.6h.13v-7.88h3.85v19.24h-3.85v-2.29ZM534.97,41.52v-4.03c0-1.25-1.07-2-2.52-2s-2.52,1.12-2.52,2.83v2.37c0,1.72,1.07,2.83,2.52,2.83s2.52-.75,2.52-2Z"/>
      <path class="cls-4" d="M541.55,39.49c0-4.32,2.29-7.12,6.4-7.12,4.52,0,6.34,3.28,6.34,6.97v1.14h-8.76v.21c0,1.79.96,2.94,3.02,2.94,1.61,0,2.5-.75,3.35-1.64l1.92,2.39c-1.22,1.4-3.22,2.26-5.72,2.26-4.19,0-6.55-2.78-6.55-7.15ZM545.53,38.01v.21h4.78v-.23c0-1.66-.75-2.78-2.29-2.78s-2.5,1.12-2.5,2.81Z"/>
      <path class="cls-4" d="M557.02,46.33v-13.65h3.85v2.96h.13c.31-1.51,1.35-2.96,3.48-2.96h.68v3.59h-.96c-2.24,0-3.33.49-3.33,2.08v7.98h-3.85Z"/>
      <path class="cls-4" d="M568.41,42.48l6.19-3.9v-.18l-6.19-3.9v-3.88l10.25,6.71v2.26l-10.25,6.79v-3.9Z"/>
    </g>
    <g>
      <path class="cls-5" d="M27.14,545.84v-2.26l10.25-6.73v3.88l-6.19,3.9v.18l6.19,3.9v3.9l-10.25-6.76Z"/>
      <path class="cls-5" d="M41.85,538.9h3.85v2.29h.13c.39-1.51,1.9-2.6,3.67-2.6,3.46,0,5.25,2.5,5.25,7.12s-1.79,7.15-5.25,7.15c-1.77,0-3.28-1.12-3.67-2.6h-.13v7.49h-3.85v-18.85ZM50.75,546.9v-2.37c0-1.72-1.07-2.83-2.52-2.83s-2.52.75-2.52,2v4.03c0,1.25,1.07,2,2.52,2s2.52-1.12,2.52-2.83Z"/>
      <path class="cls-5" d="M58.55,548.7l6.19-3.9v-.18l-6.19-3.9v-3.88l10.25,6.71v2.26l-10.25,6.79v-3.9Z"/>
    </g>
    <g>
      <path class="cls-5" d="M27.14,504.48v-2.26l10.25-6.73v3.88l-6.19,3.9v.18l6.19,3.9v3.9l-10.25-6.76Z"/>
      <path class="cls-5" d="M41.85,497.54h3.85v2.29h.13c.39-1.51,1.9-2.6,3.67-2.6,3.46,0,5.25,2.5,5.25,7.12s-1.79,7.15-5.25,7.15c-1.77,0-3.28-1.12-3.67-2.6h-.13v7.49h-3.85v-18.85ZM50.75,505.54v-2.37c0-1.72-1.07-2.83-2.52-2.83s-2.52.75-2.52,2v4.03c0,1.25,1.07,2,2.52,2s2.52-1.12,2.52-2.83Z"/>
      <path class="cls-5" d="M58.55,507.34l6.19-3.9v-.18l-6.19-3.9v-3.88l10.25,6.71v2.26l-10.25,6.79v-3.9Z"/>
    </g>
    <g>
      <path class="cls-5" d="M34.03,459.29v-2.26l10.25-6.73v3.88l-6.19,3.9v.18l6.19,3.9v3.9l-10.25-6.76Z"/>
      <path class="cls-5" d="M48.75,452.34h3.85v2.29h.13c.39-1.51,1.9-2.6,3.67-2.6,3.46,0,5.25,2.5,5.25,7.12s-1.79,7.15-5.25,7.15c-1.77,0-3.28-1.12-3.67-2.6h-.13v7.49h-3.85v-18.85ZM57.64,460.35v-2.37c0-1.72-1.07-2.83-2.52-2.83s-2.52.75-2.52,2v4.03c0,1.25,1.07,2,2.52,2s2.52-1.12,2.52-2.83Z"/>
      <path class="cls-5" d="M65.44,462.15l6.19-3.9v-.18l-6.19-3.9v-3.88l10.25,6.71v2.26l-10.25,6.79v-3.9Z"/>
    </g>
    <g>
      <path class="cls-5" d="M430.27,504.48v-2.26l10.25-6.73v3.88l-6.19,3.9v.18l6.19,3.9v3.9l-10.25-6.76Z"/>
      <path class="cls-5" d="M444.68,494.18v-.57c0-1.09.68-1.9,2.24-1.9s2.24.81,2.24,1.9v.57c0,1.09-.68,1.9-2.24,1.9s-2.24-.81-2.24-1.9ZM444.99,497.54h3.85v13.65h-3.85v-13.65Z"/>
      <path class="cls-5" d="M452.43,511.19v-13.65h3.85v2.31h.16c.49-1.46,1.64-2.63,3.67-2.63,1.87,0,3.22.96,3.82,2.76h.08c.49-1.53,2.08-2.76,4.16-2.76,2.63,0,4.08,1.98,4.08,5.41v8.55h-3.85v-8.24c0-1.77-.6-2.6-1.87-2.6-1.14,0-2.26.65-2.26,2v8.84h-3.85v-8.24c0-1.77-.62-2.6-1.87-2.6-1.12,0-2.26.65-2.26,2v8.84h-3.85Z"/>
      <path class="cls-5" d="M480.93,516.7c-4.73,0-6.47-1.2-6.47-3.17,0-1.51.96-2.39,2.55-2.6v-.29c-1.3-.23-1.98-1.22-1.98-2.39,0-1.43,1.27-2.16,2.55-2.42v-.1c-1.64-.75-2.44-2.13-2.44-3.9,0-2.76,1.92-4.6,5.85-4.6.86,0,1.64.08,2.31.26v-.52c0-1.43.75-2.05,2.05-2.05h2.16v2.86h-3.02v.16c1.59.75,2.34,2.16,2.34,3.9,0,2.73-1.9,4.52-5.85,4.52-.91,0-1.72-.1-2.42-.29-.36.23-.6.62-.6,1.09,0,.65.47,1.04,1.64,1.04h3.95c3.33,0,4.76,1.46,4.76,3.98,0,2.89-1.82,4.52-7.38,4.52ZM482.6,511.47h-4.68c-.34.34-.49.81-.49,1.22,0,.99.78,1.46,2.86,1.46h1.56c2.08,0,2.86-.47,2.86-1.46,0-.78-.57-1.22-2.11-1.22ZM483.25,501.96v-.31c0-1.2-.75-1.87-2.26-1.87s-2.26.68-2.26,1.87v.31c0,1.2.75,1.87,2.26,1.87s2.26-.68,2.26-1.87Z"/>
      <path class="cls-5" d="M490.92,507.34l6.19-3.9v-.18l-6.19-3.9v-3.88l10.25,6.71v2.26l-10.25,6.79v-3.9Z"/>
    </g>
    <g>
      <path class="cls-5" d="M109.42,712.04v-3.69l16.73-10.99v6.33l-10.1,6.37v.3l10.1,6.37v6.37l-16.73-11.04Z"/>
      <path class="cls-5" d="M149.92,723c-2.25,0-3.86-1.53-4.25-3.91h-.25c-.68,2.89-3.14,4.42-6.54,4.42-4.46,0-6.92-2.63-6.92-6.5,0-4.71,3.65-6.96,9.55-6.96h3.52v-1.4c0-2.17-1.06-3.52-3.69-3.52s-3.82,1.27-4.8,2.63l-3.74-3.31c1.78-2.63,4.33-4.25,9-4.25,6.28,0,9.51,2.89,9.51,8.15v9.76h2.08v4.88h-3.48ZM145.04,716.25v-2.63h-3.06c-2.42,0-3.69.89-3.69,2.5v.64c0,1.61,1.06,2.38,2.93,2.38,2.08,0,3.82-.85,3.82-2.89Z"/>
      <path class="cls-5" d="M159.05,716.71l10.1-6.37v-.3l-10.1-6.37v-6.33l16.73,10.95v3.69l-16.73,11.08v-6.37Z"/>
    </g>
    <g>
      <path class="cls-5" d="M275.63,712.04v-3.69l16.73-10.99v6.33l-10.1,6.37v.3l10.1,6.37v6.37l-16.73-11.04Z"/>
      <path class="cls-5" d="M316.13,723c-2.25,0-3.86-1.53-4.25-3.91h-.25c-.68,2.89-3.14,4.42-6.54,4.42-4.46,0-6.92-2.63-6.92-6.5,0-4.71,3.65-6.96,9.55-6.96h3.52v-1.4c0-2.17-1.06-3.52-3.69-3.52s-3.82,1.27-4.8,2.63l-3.74-3.31c1.78-2.63,4.33-4.25,9-4.25,6.28,0,9.51,2.89,9.51,8.15v9.76h2.08v4.88h-3.48ZM311.25,716.25v-2.63h-3.06c-2.42,0-3.69.89-3.69,2.5v.64c0,1.61,1.06,2.38,2.93,2.38,2.08,0,3.82-.85,3.82-2.89Z"/>
      <path class="cls-5" d="M325.26,716.71l10.1-6.37v-.3l-10.1-6.37v-6.33l16.73,10.95v3.69l-16.73,11.08v-6.37Z"/>
    </g>
    <g>
      <path class="cls-5" d="M439.77,708.98v-3.69l16.73-10.99v6.33l-10.1,6.37v.3l10.1,6.37v6.37l-16.73-11.04Z"/>
      <path class="cls-5" d="M480.27,719.93c-2.25,0-3.86-1.53-4.25-3.91h-.25c-.68,2.89-3.14,4.42-6.54,4.42-4.46,0-6.92-2.63-6.92-6.5,0-4.71,3.65-6.96,9.55-6.96h3.52v-1.4c0-2.17-1.06-3.52-3.69-3.52s-3.82,1.27-4.8,2.63l-3.74-3.31c1.78-2.63,4.33-4.25,9-4.25,6.28,0,9.51,2.89,9.51,8.15v9.76h2.08v4.88h-3.48ZM475.39,713.18v-2.63h-3.06c-2.42,0-3.69.89-3.69,2.5v.64c0,1.61,1.06,2.38,2.93,2.38,2.08,0,3.82-.85,3.82-2.89Z"/>
      <path class="cls-5" d="M489.4,713.65l10.1-6.37v-.3l-10.1-6.37v-6.33l16.73,10.95v3.69l-16.73,11.08v-6.37Z"/>
    </g>
  </g>
</svg>