<?xml version="1.0" encoding="UTF-8"?>
<svg id="Layer_2" data-name="Layer 2" xmlns="http://www.w3.org/2000/svg" viewBox="0 0 958.98 426.98">
  <defs>
    <style>
      .cls-1 {
        fill: #e6e6e6;
      }

      .cls-1, .cls-2, .cls-3, .cls-4, .cls-5, .cls-6, .cls-7, .cls-8 {
        stroke-miterlimit: 10;
      }

      .cls-1, .cls-3, .cls-5, .cls-7 {
        stroke: #a3a3a3;
      }

      .cls-9 {
        fill: #000;
      }

      .cls-9, .cls-10, .cls-11 {
        stroke-width: 0px;
      }

      .cls-2, .cls-8 {
        fill: none;
        stroke: #000;
      }

      .cls-3 {
        fill: #e59aaf;
      }

      .cls-4 {
        stroke: #490415;
      }

      .cls-4, .cls-7 {
        fill: #490415;
      }

      .cls-10 {
        fill: #efefef;
      }

      .cls-11, .cls-5 {
        fill: #fff;
      }

      .cls-6 {
        fill: #a01236;
        stroke: #a01236;
      }

      .cls-8 {
        stroke-linecap: round;
        stroke-width: .75px;
      }
    </style>
  </defs>
  <g id="Layer_1-2" data-name="Layer 1">
    <rect class="cls-10" width="958.98" height="426.98" rx="7.32" ry="7.32"/>
    <rect class="cls-6" x="12.35" y="12.38" width="931.18" height="402.23" rx="7.32" ry="7.32"/>
    <rect class="cls-4" x="19.3" y="22.39" width="53.08" height="42.47" rx="5.28" ry="5.28"/>
    <rect class="cls-5" x="81.85" y="22.39" width="68.72" height="42.47" rx="5.28" ry="5.28"/>
    <rect class="cls-1" x="162.15" y="22.39" width="68.72" height="42.47" rx="5.28" ry="5.28"/>
    <rect class="cls-5" x="238.59" y="22.39" width="68.72" height="42.47" rx="5.28" ry="5.28"/>
    <rect class="cls-1" x="318.5" y="22.39" width="68.72" height="42.47" rx="5.28" ry="5.28"/>
    <rect class="cls-5" x="394.41" y="22.39" width="68.72" height="42.47" rx="5.28" ry="5.28"/>
    <rect class="cls-5" x="471.43" y="22.39" width="68.72" height="42.47" rx="5.28" ry="5.28"/>
    <rect class="cls-5" x="554.92" y="22.39" width="68.72" height="42.47" rx="5.28" ry="5.28"/>
    <rect class="cls-5" x="631.98" y="22.39" width="68.72" height="42.47" rx="5.28" ry="5.28"/>
    <rect class="cls-1" x="710.93" y="22.39" width="68.72" height="42.47" rx="5.28" ry="5.28"/>
    <rect class="cls-3" x="789.11" y="22.39" width="88.6" height="42.47" rx="5.28" ry="5.28"/>
    <rect class="cls-3" x="888.18" y="22.39" width="46.09" height="42.47" rx="5.28" ry="5.28"/>
    <rect class="cls-5" x="20.46" y="73.35" width="68.72" height="57.14" rx="5.28" ry="5.28"/>
    <rect class="cls-5" x="97.29" y="73.35" width="68.72" height="57.14" rx="5.28" ry="5.28"/>
    <rect class="cls-5" x="174.11" y="73.35" width="68.72" height="57.14" rx="5.28" ry="5.28"/>
    <rect class="cls-5" x="250.94" y="73.35" width="68.72" height="57.14" rx="5.28" ry="5.28"/>
    <rect class="cls-5" x="330.08" y="73.35" width="68.72" height="57.14" rx="5.28" ry="5.28"/>
    <rect class="cls-5" x="406.91" y="73.35" width="68.72" height="57.14" rx="5.28" ry="5.28"/>
    <rect class="cls-5" x="487.6" y="73.35" width="68.72" height="57.14" rx="5.28" ry="5.28"/>
    <rect class="cls-1" x="564.42" y="73.35" width="68.72" height="57.14" rx="5.28" ry="5.28"/>
    <rect class="cls-3" x="644.34" y="73.35" width="68.72" height="57.14" rx="5.28" ry="5.28"/>
    <rect class="cls-1" x="721.16" y="73.35" width="68.72" height="57.14" rx="5.28" ry="5.28"/>
    <path class="cls-5" d="M934.84,86.13v33.21c0,6.62-5.35,11.98-11.98,11.98h-111.57c-6.6,0-11.95-5.35-11.95-11.98v-33.21c0-6.6,5.35-11.95,11.95-11.95h111.57c6.62,0,11.98,5.35,11.98,11.95Z"/>
    <rect class="cls-3" x="22.01" y="140.63" width="113.12" height="57.14" rx="5.28" ry="5.28"/>
    <rect class="cls-1" x="150.56" y="140.63" width="68.72" height="57.14" rx="5.28" ry="5.28"/>
    <rect class="cls-1" x="229.95" y="140.63" width="68.72" height="57.14" rx="5.28" ry="5.28"/>
    <rect class="cls-1" x="312.71" y="140.63" width="68.72" height="57.14" rx="5.28" ry="5.28"/>
    <rect class="cls-5" x="394.41" y="140.63" width="68.72" height="57.14" rx="5.28" ry="5.28"/>
    <rect class="cls-1" x="474.47" y="140.63" width="72.19" height="57.14" rx="5.28" ry="5.28"/>
    <rect class="cls-5" x="557.86" y="140.63" width="68.72" height="57.14" rx="5.28" ry="5.28"/>
    <rect class="cls-5" x="636.8" y="140.63" width="68.72" height="57.14" rx="5.28" ry="5.28"/>
    <rect class="cls-5" x="721.16" y="140.63" width="84.23" height="57.14" rx="5.28" ry="5.28"/>
    <rect class="cls-1" x="19.69" y="207.91" width="142.46" height="57.14" rx="5.28" ry="5.28"/>
    <rect class="cls-5" x="173.34" y="207.91" width="68.72" height="57.14" rx="5.28" ry="5.28"/>
    <rect class="cls-5" x="250.17" y="207.91" width="68.72" height="57.14" rx="5.28" ry="5.28"/>
    <rect class="cls-1" x="329.31" y="207.91" width="68.72" height="57.14" rx="5.28" ry="5.28"/>
    <rect class="cls-3" x="406.14" y="207.91" width="68.72" height="57.14" rx="5.28" ry="5.28"/>
    <rect class="cls-5" x="486.82" y="207.91" width="68.72" height="57.14" rx="5.28" ry="5.28"/>
    <rect class="cls-5" x="563.65" y="207.91" width="68.72" height="57.14" rx="5.28" ry="5.28"/>
    <rect class="cls-5" x="643.57" y="207.91" width="68.72" height="57.14" rx="5.28" ry="5.28"/>
    <rect class="cls-5" x="720.39" y="207.91" width="68.72" height="57.14" rx="5.28" ry="5.28"/>
    <rect class="cls-5" x="798.38" y="207.91" width="68.72" height="57.14" rx="5.28" ry="5.28"/>
    <path class="cls-3" d="M936.97,153.02v33.18c0,2.65-2.31,67.29-2.31,67.29,0,6.6-5.35,11.95-11.98,11.95h-35.5c-6.61,0-11.98-5.36-11.98-11.98v-46.06c0-5.1-4.14-9.24-9.24-9.24h-35.56c-6.6,0-11.95-5.35-11.95-11.98v-33.18c0-6.62,5.35-11.98,11.95-11.98h94.6c6.6,0,11.95,5.35,11.95,11.98Z"/>
    <rect class="cls-1" x="22.01" y="275.18" width="128.56" height="57.14" rx="5.28" ry="5.28"/>
    <rect class="cls-1" x="162.15" y="275.18" width="68.72" height="57.14" rx="5.28" ry="5.28"/>
    <rect class="cls-1" x="238.59" y="275.18" width="68.72" height="57.14" rx="5.28" ry="5.28"/>
    <rect class="cls-5" x="318.5" y="275.18" width="68.72" height="57.14" rx="5.28" ry="5.28"/>
    <rect class="cls-5" x="398.8" y="275.18" width="68.72" height="57.14" rx="5.28" ry="5.28"/>
    <rect class="cls-1" x="477.95" y="275.18" width="68.72" height="57.14" rx="5.28" ry="5.28"/>
    <rect class="cls-5" x="555.16" y="275.18" width="68.72" height="57.14" rx="5.28" ry="5.28"/>
    <rect class="cls-1" x="631.98" y="275.18" width="68.72" height="57.14" rx="5.28" ry="5.28"/>
    <rect class="cls-7" x="710.93" y="275.18" width="68.72" height="57.14" rx="5.28" ry="5.28"/>
    <rect class="cls-3" x="708.77" y="343.93" width="68.72" height="57.14" rx="5.28" ry="5.28"/>
    <rect class="cls-5" x="789.88" y="275.18" width="147.09" height="57.14" rx="5.28" ry="5.28"/>
    <rect class="cls-4" x="20.46" y="342.46" width="103.85" height="57.14" rx="5.28" ry="5.28"/>
    <rect class="cls-5" x="138.6" y="342.46" width="68.72" height="57.14" rx="5.28" ry="5.28"/>
    <rect class="cls-5" x="219.28" y="342.46" width="84.16" height="57.14" rx="5.28" ry="5.28"/>
    <rect class="cls-3" x="318.22" y="343.93" width="319.27" height="57.14" rx="5.28" ry="5.28"/>
    <rect class="cls-5" x="641.09" y="342.46" width="60.13" height="57.14" rx="5.28" ry="5.28"/>
    <rect class="cls-1" x="784.48" y="342.46" width="60.85" height="57.14" rx="5.28" ry="5.28"/>
    <rect class="cls-1" x="855.51" y="342.46" width="79.91" height="57.14" rx="5.28" ry="5.28"/>
    <g>
      <path class="cls-9" d="M833.92,166.59v-10.77h7.33v2.08h-4.99v2.21h4.27v2.07h-4.27v2.33h4.99v2.08h-7.33Z"/>
      <path class="cls-9" d="M843.18,166.59v-8.1h2.28v1.38h.09c.29-.85.97-1.56,2.25-1.56,1.65,0,2.53,1.17,2.53,3.21v5.08h-2.28v-4.89c0-1.03-.29-1.54-1.13-1.54-.74,0-1.47.39-1.47,1.19v5.25h-2.28Z"/>
      <path class="cls-9" d="M855.22,166.59c-1.57,0-2.41-.82-2.41-2.36v-3.97h-1.14v-1.78h.57c.62,0,.8-.31.8-.86v-1.33h2.05v2.19h1.61v1.78h-1.61v4.55h1.48v1.77h-1.36Z"/>
      <path class="cls-9" d="M857.72,162.53c0-2.56,1.36-4.23,3.8-4.23,2.69,0,3.77,1.94,3.77,4.14v.68h-5.2v.12c0,1.07.57,1.74,1.79,1.74.96,0,1.48-.45,1.99-.97l1.14,1.42c-.72.84-1.91,1.34-3.4,1.34-2.49,0-3.89-1.65-3.89-4.25ZM860.09,161.65v.12h2.84v-.14c0-.99-.45-1.65-1.36-1.65s-1.48.66-1.48,1.67Z"/>
      <path class="cls-9" d="M866.91,166.59v-8.1h2.28v1.76h.08c.19-.89.8-1.76,2.07-1.76h.4v2.13h-.57c-1.33,0-1.98.29-1.98,1.24v4.74h-2.28Z"/>
    </g>
    <g>
      <path class="cls-9" d="M37.19,152.15v8.69h-2.35v-8.69h-2.92v-2.08h8.18v2.08h-2.92Z"/>
      <path class="cls-9" d="M46.51,160.84c-.82,0-1.4-.56-1.54-1.42h-.09c-.25,1.05-1.14,1.61-2.38,1.61-1.62,0-2.52-.96-2.52-2.36,0-1.71,1.33-2.53,3.47-2.53h1.28v-.51c0-.79-.39-1.28-1.34-1.28s-1.39.46-1.74.96l-1.36-1.2c.65-.96,1.57-1.54,3.27-1.54,2.28,0,3.46,1.05,3.46,2.96v3.55h.76v1.77h-1.26ZM44.73,158.38v-.96h-1.11c-.88,0-1.34.32-1.34.91v.23c0,.58.39.86,1.07.86.76,0,1.39-.31,1.39-1.05Z"/>
      <path class="cls-9" d="M49.31,149.42h2.28v4.68h.08c.23-.9,1.13-1.54,2.18-1.54,2.05,0,3.12,1.48,3.12,4.23s-1.06,4.25-3.12,4.25c-1.05,0-1.94-.66-2.18-1.54h-.08v1.36h-2.28v-11.42ZM54.58,157.49v-1.4c0-1.02-.63-1.68-1.5-1.68s-1.5.45-1.5,1.19v2.39c0,.74.63,1.19,1.5,1.19s1.5-.66,1.5-1.68Z"/>
    </g>
    <g>
      <path class="cls-9" d="M429.36,373.21l1.54-1.56c.72.82,1.65,1.24,2.7,1.24,1.14,0,1.7-.51,1.7-1.3,0-.58-.25-1.02-1.25-1.16l-1.07-.14c-2.27-.29-3.3-1.4-3.3-3.21,0-1.93,1.51-3.27,4.04-3.27,1.62,0,2.86.54,3.73,1.51l-1.56,1.57c-.51-.6-1.2-1.02-2.32-1.02-1.05,0-1.56.4-1.56,1.05,0,.74.39,1.02,1.28,1.16l1.07.17c2.21.35,3.27,1.34,3.27,3.2,0,2.07-1.51,3.5-4.2,3.5-1.88,0-3.17-.73-4.09-1.75Z"/>
      <path class="cls-9" d="M439.47,366.66h2.28v1.36h.08c.23-.9,1.13-1.54,2.18-1.54,2.05,0,3.12,1.48,3.12,4.23s-1.07,4.25-3.12,4.25c-1.05,0-1.94-.66-2.18-1.54h-.08v4.45h-2.28v-11.19ZM444.75,371.42v-1.4c0-1.02-.63-1.68-1.5-1.68s-1.5.45-1.5,1.19v2.39c0,.74.63,1.19,1.5,1.19s1.5-.66,1.5-1.68Z"/>
      <path class="cls-9" d="M454.85,374.77c-.82,0-1.4-.56-1.54-1.42h-.09c-.25,1.05-1.14,1.61-2.38,1.61-1.62,0-2.52-.96-2.52-2.36,0-1.71,1.33-2.53,3.47-2.53h1.28v-.51c0-.79-.39-1.28-1.34-1.28s-1.39.46-1.74.96l-1.36-1.2c.65-.96,1.57-1.54,3.27-1.54,2.28,0,3.46,1.05,3.46,2.96v3.55h.76v1.77h-1.26ZM453.08,372.31v-.96h-1.11c-.88,0-1.34.32-1.34.91v.23c0,.58.39.86,1.07.86.76,0,1.39-.31,1.39-1.05Z"/>
      <path class="cls-9" d="M457.14,370.71c0-2.59,1.34-4.23,3.78-4.23,1.64,0,2.76.79,3.24,2.11l-1.85.8c-.14-.62-.58-1.11-1.39-1.11-.93,0-1.4.66-1.4,1.68v1.51c0,1.02.48,1.67,1.4,1.67s1.28-.56,1.51-1.2l1.78.77c-.54,1.54-1.7,2.24-3.29,2.24-2.44,0-3.78-1.65-3.78-4.25Z"/>
      <path class="cls-9" d="M465.05,370.71c0-2.56,1.36-4.23,3.8-4.23,2.69,0,3.77,1.94,3.77,4.14v.68h-5.2v.12c0,1.07.57,1.74,1.79,1.74.96,0,1.48-.45,1.99-.97l1.14,1.42c-.72.84-1.91,1.34-3.4,1.34-2.49,0-3.89-1.65-3.89-4.25ZM467.41,369.83v.12h2.84v-.14c0-.99-.45-1.65-1.36-1.65s-1.48.66-1.48,1.67Z"/>
      <path class="cls-9" d="M474.24,363.35h2.28v4.68h.08c.23-.9,1.13-1.54,2.18-1.54,2.05,0,3.12,1.48,3.12,4.23s-1.07,4.25-3.12,4.25c-1.05,0-1.94-.66-2.18-1.54h-.08v1.36h-2.28v-11.42ZM479.52,371.42v-1.4c0-1.02-.63-1.68-1.5-1.68s-1.5.45-1.5,1.19v2.39c0,.74.63,1.19,1.5,1.19s1.5-.66,1.5-1.68Z"/>
      <path class="cls-9" d="M489.62,374.77c-.82,0-1.4-.56-1.54-1.42h-.09c-.25,1.05-1.14,1.61-2.38,1.61-1.62,0-2.52-.96-2.52-2.36,0-1.71,1.33-2.53,3.47-2.53h1.28v-.51c0-.79-.39-1.28-1.34-1.28s-1.39.46-1.74.96l-1.36-1.2c.65-.96,1.57-1.54,3.27-1.54,2.28,0,3.46,1.05,3.46,2.96v3.55h.76v1.77h-1.26ZM487.84,372.31v-.96h-1.11c-.88,0-1.34.32-1.34.91v.23c0,.58.39.86,1.07.86.76,0,1.39-.31,1.39-1.05Z"/>
      <path class="cls-9" d="M492.42,374.77v-8.1h2.28v1.76h.08c.19-.89.8-1.76,2.07-1.76h.4v2.13h-.57c-1.33,0-1.98.29-1.98,1.24v4.74h-2.28Z"/>
    </g>
    <g>
      <path class="cls-11" d="M58.79,370.81c0-2.59,1.34-4.23,3.78-4.23,1.64,0,2.76.79,3.24,2.11l-1.85.8c-.14-.62-.58-1.11-1.39-1.11-.93,0-1.4.66-1.4,1.68v1.51c0,1.02.48,1.67,1.4,1.67s1.28-.56,1.51-1.2l1.78.77c-.54,1.54-1.7,2.24-3.29,2.24-2.44,0-3.78-1.65-3.78-4.25Z"/>
      <path class="cls-11" d="M70.12,374.87c-1.57,0-2.41-.82-2.41-2.36v-3.97h-1.14v-1.78h.57c.62,0,.8-.31.8-.86v-1.33h2.05v2.19h1.61v1.78h-1.61v4.55h1.48v1.77h-1.36Z"/>
      <path class="cls-11" d="M73.2,374.87v-8.1h2.28v1.76h.08c.19-.89.8-1.76,2.07-1.76h.4v2.13h-.57c-1.33,0-1.98.29-1.98,1.24v4.74h-2.28Z"/>
      <path class="cls-11" d="M81.71,374.87c-1.56,0-2.27-.79-2.27-2.22v-9.2h2.28v9.65h1.02v1.77h-1.03Z"/>
    </g>
    <g>
      <path class="cls-11" d="M32.48,42.8c0-2.56,1.36-4.23,3.8-4.23,2.69,0,3.77,1.94,3.77,4.14v.68h-5.2v.12c0,1.07.57,1.74,1.79,1.74.96,0,1.48-.45,1.99-.97l1.14,1.42c-.72.84-1.91,1.34-3.4,1.34-2.49,0-3.89-1.65-3.89-4.25ZM34.85,41.93v.12h2.84v-.14c0-.99-.45-1.65-1.36-1.65s-1.48.66-1.48,1.67Z"/>
      <path class="cls-11" d="M41.01,45.6l1.34-1.36c.57.63,1.27,1.03,2.15,1.03s1.2-.29,1.2-.77c0-.4-.25-.6-.82-.68l-.88-.11c-1.84-.23-2.73-1.03-2.73-2.5,0-1.56,1.22-2.64,3.15-2.64,1.7,0,2.49.46,3.3,1.26l-1.31,1.34c-.51-.51-1.19-.84-1.87-.84-.77,0-1.08.28-1.08.68,0,.43.19.66.85.76l.91.12c1.76.23,2.67,1.03,2.67,2.44,0,1.56-1.39,2.7-3.47,2.7-1.56,0-2.58-.52-3.41-1.45Z"/>
      <path class="cls-11" d="M48.95,42.8c0-2.59,1.34-4.23,3.78-4.23,1.64,0,2.76.79,3.24,2.11l-1.85.8c-.14-.62-.58-1.11-1.39-1.11-.93,0-1.4.66-1.4,1.68v1.51c0,1.02.48,1.67,1.4,1.67s1.28-.56,1.51-1.2l1.78.77c-.54,1.54-1.7,2.24-3.29,2.24-2.44,0-3.78-1.65-3.78-4.25Z"/>
    </g>
    <path class="cls-9" d="M735.55,363.68l17.88.14c.81,0,1.31.88.91,1.59l-8.83,15.38c-.41.71-1.42.71-1.83,0l-9.05-15.52c-.41-.71.1-1.6.92-1.59Z"/>
    <path class="cls-11" d="M735.55,309.61l17.88-.14c.81,0,1.31-.88.91-1.59l-8.83-15.38c-.41-.71-1.42-.71-1.83,0l-9.05,15.52c-.41.71.1,1.6.92,1.59Z"/>
    <path class="cls-9" d="M675.8,360.87l-.14,17.88c0,.81-.88,1.31-1.59.91l-15.38-8.83c-.71-.41-.71-1.42,0-1.83l15.52-9.05c.71-.41,1.6.1,1.59.92Z"/>
    <path class="cls-9" d="M805.4,378.17l.14-17.88c0-.81.88-1.31,1.59-.91l15.38,8.83c.71.41.71,1.42,0,1.83l-15.52,9.05c-.71.41-1.6-.1-1.59-.92Z"/>
    <g>
      <line class="cls-8" x1="106.92" y1="169.61" x2="118.08" y2="169.9"/>
      <polyline class="cls-8" points="114.7 164.45 119.42 169.9 114.7 174.63"/>
    </g>
    <g>
      <line class="cls-8" x1="115.32" y1="183.31" x2="105.01" y2="183.57"/>
      <polyline class="cls-8" points="108.4 178.13 103.68 183.57 108.4 188.3"/>
    </g>
    <line class="cls-8" x1="122.39" y1="162.49" x2="122.39" y2="176.37"/>
    <line class="cls-8" x1="100.17" y1="178.05" x2="100.17" y2="188.69"/>
    <g>
      <path class="cls-2" d="M921.52,231.76v5.59c0,2.1-1.7,3.8-3.8,3.8h-17.05"/>
      <polyline class="cls-2" points="905.21 235.35 898.98 241.6 905.47 246.93"/>
    </g>
  </g>
</svg>