<svg width="40" height="40" viewBox="0 0 40 40" fill="none" xmlns="http://www.w3.org/2000/svg">
<path fill-rule="evenodd" clip-rule="evenodd" d="M25.7061 29.2504C25.6576 29.2504 25.6083 29.2492 25.5582 29.2469H14.8567C13.3928 29.2469 12.8102 28.8275 12.2594 27.377L8.98658 16.9349C8.60365 16.0131 8.70061 14.9645 9.24599 14.1301L20.1032 0.0519409C24.2235 0.0773997 28.1778 1.34969 31.5395 3.73081C34.9015 6.11214 37.4139 9.42072 38.8052 13.2989L27.948 27.9996C27.4281 28.6493 26.7966 29.2504 25.7061 29.2504ZM13.4548 13.3507V17.6623H17.922V24.9872H22.2335L22.2335 17.6623H26.7007V13.3507H13.4548Z" fill="#0B0D0E"/>
<path fill-rule="evenodd" clip-rule="evenodd" d="M38.8052 13.2468L27.9481 28C27.3247 28.7792 26.6494 29.2987 25.5584 29.2468H14.8571C13.4546 29.2468 12.8312 28.8831 12.2597 27.3766L8.98701 16.9351C8.60419 16.0146 8.70145 14.9644 9.24676 14.1299L20.1039 0C8.95431 0 0 8.95431 0 20C0 31.0457 8.9543 40 20 40C31.0338 39.9715 39.9715 31.0338 40.0002 20C40.0098 17.6955 39.6051 15.408 38.8052 13.2468Z" fill="#D9E64D"/>
<path fill-rule="evenodd" clip-rule="evenodd" d="M13.4546 13.3508L26.7005 13.3508V17.6623H22.2333V24.9873H17.9218V17.6623H13.4546V13.3508Z" fill="white"/>
</svg>
