<?xml version="1.0" encoding="UTF-8"?>
<svg id="Layer_2" data-name="Layer 2" xmlns="http://www.w3.org/2000/svg" xmlns:xlink="http://www.w3.org/1999/xlink" viewBox="0 0 770.35 771.64">
  <defs>
    <style>
      .cls-1, .cls-2, .cls-3, .cls-4, .cls-5, .cls-6, .cls-7, .cls-8, .cls-9, .cls-10, .cls-11 {
        stroke-miterlimit: 10;
      }

      .cls-1, .cls-2, .cls-3, .cls-5, .cls-6, .cls-7, .cls-8, .cls-9, .cls-10, .cls-11 {
        stroke: #a01236;
      }

      .cls-1, .cls-10, .cls-12 {
        fill: #e59aaf;
      }

      .cls-2 {
        fill: #efefef;
      }

      .cls-3 {
        fill: #dde0e3;
        stroke-width: 2px;
      }

      .cls-4 {
        stroke: #490415;
        stroke-dasharray: 0 0 29 10;
        stroke-width: 11px;
      }

      .cls-4, .cls-6, .cls-9 {
        fill: none;
      }

      .cls-5 {
        fill: url(#linear-gradient);
      }

      .cls-13, .cls-8, .cls-11 {
        fill: #a01236;
      }

      .cls-13, .cls-12 {
        stroke-width: 0px;
      }

      .cls-6, .cls-8, .cls-10 {
        stroke-width: 4px;
      }

      .cls-7 {
        fill: #490415;
      }

      .cls-9 {
        stroke-linecap: round;
        stroke-width: 32px;
      }
    </style>
    <linearGradient id="linear-gradient" x1="140.19" y1="368.26" x2="234.8" y2="624.37" gradientUnits="userSpaceOnUse">
      <stop offset="0" stop-color="#e59aaf"/>
      <stop offset=".48" stop-color="#a01236"/>
      <stop offset=".99" stop-color="#490415"/>
    </linearGradient>
  </defs>
  <g id="Layer_1-2" data-name="Layer 1">
    <rect class="cls-11" x=".5" y="125.61" width="465.7" height="286.46" rx="7.22" ry="7.22"/>
    <rect class="cls-2" x="10.71" y="141.01" width="443.23" height="257.77" rx="6.58" ry="6.58"/>
    <rect class="cls-7" x="54.03" y="268.84" width="348.26" height="29.62"/>
    <rect class="cls-4" x="54.03" y="160.58" width="348.26" height="80.68"/>
    <rect class="cls-7" x="54.03" y="319.93" width="200.17" height="29.62"/>
    <polygon class="cls-11" points="312.42 511.65 140.85 511.65 161.27 484.07 204.76 484.07 204.76 401.63 246.04 401.63 246.04 484.07 295.06 484.07 312.42 511.65"/>
    <path class="cls-10" d="M394.96,769.64H54.03c0-62.61,46.29-113.37,103.39-113.37h34.93v-82.57h81.2v82.57h18c28.55,0,54.4,12.69,73.1,33.21,18.72,20.51,30.29,48.85,30.29,80.16Z"/>
    <path class="cls-7" d="M338.34,449.44c0,77.66-50.9,140.61-113.68,140.61s-113.68-62.96-113.68-140.61c0-50.96,13.49-103.98,46.3-128.64,17.19-12.92,45.79-11.98,67.37-11.98,16.66,0,39.74,1.77,54,9.73,39.46,22.05,59.68,73.83,59.68,130.88Z"/>
    <path class="cls-5" d="M155.65,542.94s-52.09-10.72,28.09-43.91c0,0,38.3-15.32,57.7,21.96,0,0,29.11-7.15,39.32,11.74s8.17,22.47-5.11,28.6c0,0,27.57-7.15,46.98,16.34s0,34.72,0,34.72c0,0,12.26,24.51,0,38.81,0,0-20.43,39.32-52.6,5.62,0,0-44.43,37.79-60.26-9.7,0,0-11.23,31.15-49.53,16.85s-17.87-46.47-17.87-46.47c0,0-32.17,7.66-22.47-40.85,9.7-48.51,38.3-33.19,38.3-33.19l-2.55-.51Z"/>
    <g>
      <path class="cls-6" d="M127.31,529.29s-108.26-173.4,104.68-193.41c0,0,180.77,10,93.96,210.56"/>
      <path class="cls-9" d="M108.15,407.96s26.95-76.97,121.92-74.59c94.98,2.38,111.5,74.59,111.5,74.59"/>
    </g>
    <g>
      <rect class="cls-12" x="66.16" y="452.57" width="44.56" height="101.07" rx="22.28" ry="22.28" transform="translate(-170.12 62.55) rotate(-20.44)"/>
      <rect class="cls-8" x="96.66" y="438.27" width="27.67" height="113.87" rx="13.83" ry="13.83" transform="translate(-133.04 50.09) rotate(-16.11)"/>
      <rect class="cls-13" x="54.57" y="485.91" width="12.11" height="49.41" rx="6.06" ry="6.06" transform="translate(-174.49 53.32) rotate(-20.44)"/>
    </g>
    <g>
      <rect class="cls-12" x="331.32" y="456.08" width="44.56" height="101.07" rx="22.28" ry="22.28" transform="translate(508.02 1104.81) rotate(-159.56)"/>
      <rect class="cls-13" x="376.31" y="488.85" width="13.23" height="49.41" rx="6.06" ry="6.06" transform="translate(562.41 1128.5) rotate(-159.56)"/>
      <rect class="cls-8" x="321.01" y="442.69" width="27.67" height="113.87" rx="13.83" ry="13.83" transform="translate(517.94 1072.54) rotate(-163.89)"/>
    </g>
    <path class="cls-3" d="M769.35,147.06c0,80.66-91.53,146.06-204.43,146.06-85.4,0-158.58-37.43-189.15-90.58-17.21-.07-38.23,4.22-63.35,16.31,0,0,1.93-35.79,49.91-52.15-1.21-6.42-1.83-12.98-1.83-19.64C360.5,66.39,452.03,1,564.92,1s204.43,65.39,204.43,146.06Z"/>
    <g>
      <path class="cls-1" d="M156.5,177.45v32.29h-8.72v-32.29h-10.84v-7.74h30.4v7.74h-10.84Z"/>
      <path class="cls-1" d="M173.31,209.74v-40.04h27.24v7.74h-18.53v8.2h15.89v7.69h-15.89v8.66h18.53v7.74h-27.24Z"/>
      <path class="cls-1" d="M217.48,189.04l-12.22-19.33h10.15l7.8,13.54h.17l7.92-13.54h9.41l-12.33,19.5,13.02,20.53h-10.09l-8.66-14.74h-.17l-8.43,14.74h-9.41l12.85-20.71Z"/>
      <path class="cls-1" d="M263.43,177.45v32.29h-8.72v-32.29h-10.84v-7.74h30.4v7.74h-10.84Z"/>
      <path class="cls-1" d="M135.4,229.52v-10.25h149.37v10.25h-149.37Z"/>
    </g>
    <g>
      <path class="cls-13" d="M398.52,138.02v-1.2c0-4.47,2.75-9.18,6.25-11.87h5.33c-2.52,2.29-4.36,4.59-5.28,7.46,2.47.46,3.56,2.18,3.56,4.19v1.43c0,2.35-1.49,4.13-4.93,4.13s-4.93-1.78-4.93-4.13ZM412,138.02v-1.2c0-4.47,2.75-9.18,6.25-11.87h5.33c-2.52,2.29-4.36,4.59-5.28,7.46,2.47.46,3.56,2.18,3.56,4.19v1.43c0,2.35-1.49,4.13-4.93,4.13s-4.93-1.78-4.93-4.13Z"/>
      <path class="cls-13" d="M430.07,167.38v-40.04h8.72v32.29h15.26v7.74h-23.98Z"/>
      <path class="cls-13" d="M459.32,129.87v-1.26c0-2.41,1.49-4.19,4.93-4.19s4.93,1.78,4.93,4.19v1.26c0,2.41-1.49,4.19-4.93,4.19s-4.93-1.78-4.93-4.19ZM460.01,137.27h8.49v30.11h-8.49v-30.11Z"/>
      <path class="cls-13" d="M476.42,167.38v-30.11h8.49v5.11h.34c1.09-3.16,3.61-5.79,8.37-5.79,6.14,0,9.41,4.36,9.41,11.93v18.87h-8.49v-18.18c0-3.84-1.09-5.74-4.19-5.74-2.75,0-5.45,1.43-5.45,4.42v19.5h-8.49Z"/>
      <path class="cls-13" d="M510.6,124.94h8.49v25.06h.34l3.73-5.56,6.02-7.17h9.41l-10.04,11.53,11.18,18.58h-10.1l-6.77-12.73-3.79,4.24v8.49h-8.49v-42.44Z"/>
      <path class="cls-13" d="M543.59,163.43v-1.15c0-2.64,1.61-4.59,5.05-4.59s5.05,1.95,5.05,4.59v1.15c0,2.64-1.61,4.59-5.05,4.59s-5.05-1.95-5.05-4.59Z"/>
      <path class="cls-13" d="M561.37,163.43v-1.15c0-2.64,1.61-4.59,5.05-4.59s5.05,1.95,5.05,4.59v1.15c0,2.64-1.61,4.59-5.05,4.59s-5.05-1.95-5.05-4.59Z"/>
      <path class="cls-13" d="M579.15,163.43v-1.15c0-2.64,1.61-4.59,5.05-4.59s5.05,1.95,5.05,4.59v1.15c0,2.64-1.61,4.59-5.05,4.59s-5.05-1.95-5.05-4.59Z"/>
      <path class="cls-13" d="M606.23,167.38c-5.85,0-8.95-3.04-8.95-8.78v-14.74h-4.24v-6.6h2.12c2.29,0,2.98-1.15,2.98-3.21v-4.93h7.63v8.14h5.96v6.6h-5.96v16.92h5.51v6.6h-5.05Z"/>
      <path class="cls-13" d="M615.52,152.3c0-9.52,5.05-15.72,14.11-15.72,9.98,0,14,7.23,14,15.37v2.52h-19.33v.46c0,3.96,2.12,6.48,6.65,6.48,3.56,0,5.51-1.66,7.4-3.61l4.24,5.28c-2.7,3.1-7.11,4.99-12.62,4.99-9.24,0-14.46-6.14-14.46-15.77ZM624.3,149.03v.46h10.55v-.52c0-3.67-1.66-6.14-5.05-6.14s-5.51,2.47-5.51,6.19Z"/>
      <path class="cls-13" d="M645.81,167.38l9.92-15.31-9.81-14.8h9.64l5.62,9.46h.23l5.45-9.46h8.95l-9.98,15.09,10.04,15.03h-9.64l-5.79-9.81h-.23l-5.56,9.81h-8.83Z"/>
      <path class="cls-13" d="M691.41,167.38c-5.85,0-8.95-3.04-8.95-8.78v-14.74h-4.24v-6.6h2.12c2.29,0,2.98-1.15,2.98-3.21v-4.93h7.63v8.14h5.96v6.6h-5.96v16.92h5.51v6.6h-5.05Z"/>
      <path class="cls-13" d="M712.81,128.5v1.21c0,4.47-2.75,9.18-6.25,11.87h-5.33c2.52-2.29,4.36-4.59,5.28-7.46-2.47-.46-3.56-2.18-3.56-4.19v-1.43c0-2.35,1.49-4.13,4.93-4.13s4.93,1.78,4.93,4.13ZM726.29,128.5v1.21c0,4.47-2.75,9.18-6.25,11.87h-5.33c2.52-2.29,4.36-4.59,5.28-7.46-2.47-.46-3.56-2.18-3.56-4.19v-1.43c0-2.35,1.49-4.13,4.93-4.13s4.93,1.78,4.93,4.13Z"/>
    </g>
  </g>
</svg>