<?xml version="1.0" encoding="UTF-8"?>
<svg id="Layer_2" data-name="Layer 2" xmlns="http://www.w3.org/2000/svg" viewBox="0 0 970.82 932.79">
  <defs>
    <style>
      .cls-1, .cls-2, .cls-3 {
        stroke-width: 3px;
      }

      .cls-1, .cls-2, .cls-3, .cls-4, .cls-5, .cls-6, .cls-7, .cls-8, .cls-9, .cls-10 {
        stroke-miterlimit: 10;
      }

      .cls-1, .cls-3, .cls-4, .cls-10 {
        stroke: #a01236;
      }

      .cls-1, .cls-10 {
        fill: #dde0e3;
      }

      .cls-2 {
        fill: #fff;
      }

      .cls-2, .cls-5, .cls-7, .cls-9 {
        stroke: #a01236;
      }

      .cls-3 {
        fill: #e59aaf;
      }

      .cls-4 {
        stroke-width: 5px;
      }

      .cls-4, .cls-5, .cls-7, .cls-8, .cls-9 {
        fill: none;
      }

      .cls-11 {
        fill: #f7f7f7;
      }

      .cls-11, .cls-12, .cls-13 {
        stroke-width: 0px;
      }

      .cls-5 {
        stroke-dasharray: 0 0 27.07 27.07;
      }

      .cls-5, .cls-7, .cls-9 {
        stroke-width: 11px;
      }

      .cls-6 {
        fill: #dde0e3;
        stroke: #aaa;
      }

      .cls-12 {
        fill: #a01236;
      }

      .cls-8 {
        stroke: #1b1464;
      }

      .cls-8, .cls-10 {
        stroke-width: 4px;
      }

      .cls-9 {
        stroke-dasharray: 0 0 28.68 28.68;
      }

      .cls-13 {
        fill: #a01236;
      }
    </style>
  </defs>
  <g id="Layer_1-2" data-name="Layer 1">
    <path class="cls-11" d="M232.46,623.17S-142.34,469.48,59.88,248.12s230.85-10.81,385.04,3.4,200.37-192.59,200.37-192.59c0,0,255.61-189.57,313.82,111.26s-119.49,331.19-119.49,331.19c0,0-228.99,97.48-85.79,218.63s-144.94,277.99-283.87,161.56-230.85-251.44-230.85-251.44l-6.65-6.97Z"/>
    <rect class="cls-6" x="221.03" y="291.33" width="474.89" height="134.09" rx="12.37" ry="12.37"/>
    <g>
      <polyline class="cls-7" points="731.39 433.87 731.39 447.87 717.39 447.87"/>
      <line class="cls-9" x1="688.71" y1="447.87" x2="186.79" y2="447.87"/>
      <polyline class="cls-7" points="172.45 447.87 158.45 447.87 158.45 433.87"/>
      <line class="cls-5" x1="158.45" y1="406.79" x2="158.45" y2="257.89"/>
      <polyline class="cls-7" points="158.45 244.35 158.45 230.35 172.45 230.35"/>
      <line class="cls-9" x1="201.13" y1="230.35" x2="703.05" y2="230.35"/>
      <polyline class="cls-7" points="717.39 230.35 731.39 230.35 731.39 244.35"/>
      <line class="cls-5" x1="731.39" y1="271.42" x2="731.39" y2="420.33"/>
    </g>
    <rect class="cls-2" x="192.15" y="258.97" width="474.89" height="134.09" rx="9.61" ry="9.61"/>
    <g>
      <path class="cls-13" d="M243.98,337.93h-.34c-.67,4.72-4.99,8.29-12.06,8.29-10.78,0-19.28-8.36-19.28-24.13s8.56-24.53,21.3-24.53c8.36,0,14.62,3.71,18.13,10.92l-8.36,4.79c-1.41-3.64-4.31-6.6-9.77-6.6-6.34,0-10.45,3.64-10.45,11.46v7.55c0,7.82,4.11,11.46,10.45,11.46,5.12,0,9.23-2.43,9.23-7.01v-2.36h-8.76v-8.56h18.54v26.22h-8.63v-7.48Z"/>
      <path class="cls-13" d="M288.19,345.42c-3.57,0-6.13-2.43-6.74-6.2h-.4c-1.08,4.58-4.99,7.01-10.38,7.01-7.08,0-10.99-4.18-10.99-10.31,0-7.48,5.8-11.05,15.16-11.05h5.59v-2.22c0-3.44-1.68-5.59-5.86-5.59s-6.07,2.02-7.62,4.18l-5.93-5.26c2.83-4.18,6.88-6.74,14.29-6.74,9.97,0,15.1,4.58,15.1,12.94v15.5h3.3v7.75h-5.53ZM280.44,334.7v-4.18h-4.85c-3.84,0-5.86,1.42-5.86,3.98v1.01c0,2.56,1.69,3.77,4.65,3.77,3.3,0,6.07-1.35,6.07-4.58Z"/>
      <path class="cls-13" d="M338,339.48h-.34c-1.01,3.84-4.92,6.74-9.5,6.74-8.96,0-13.61-6.54-13.61-18.53s4.65-18.47,13.61-18.47c4.58,0,8.49,2.83,9.5,6.74h.34v-20.42h9.98v49.87h-9.98v-5.93ZM338,332.95v-10.45c0-3.24-2.76-5.19-6.54-5.19s-6.54,2.9-6.54,7.35v6.13c0,4.45,2.76,7.35,6.54,7.35s6.54-1.95,6.54-5.19Z"/>
      <path class="cls-13" d="M356.47,301.34v-1.48c0-2.83,1.75-4.92,5.8-4.92s5.8,2.09,5.8,4.92v1.48c0,2.83-1.75,4.92-5.8,4.92s-5.8-2.09-5.8-4.92ZM357.27,310.03h9.98v35.38h-9.98v-35.38Z"/>
      <path class="cls-13" d="M376.55,345.42v-35.38h9.98v7.68h.34c.81-3.91,3.5-7.68,9.03-7.68h1.75v9.3h-2.49c-5.8,0-8.63,1.28-8.63,5.39v20.69h-9.98Z"/>
      <path class="cls-13" d="M401.22,327.69c0-11.19,5.93-18.47,16.58-18.47,11.73,0,16.44,8.49,16.44,18.06v2.97h-22.71v.54c0,4.65,2.49,7.62,7.82,7.62,4.18,0,6.47-1.95,8.69-4.25l4.99,6.2c-3.17,3.64-8.36,5.86-14.83,5.86-10.85,0-16.98-7.21-16.98-18.53ZM411.53,323.85v.54h12.4v-.61c0-4.31-1.95-7.21-5.93-7.21s-6.47,2.9-6.47,7.28Z"/>
      <path class="cls-13" d="M439.09,327.69c0-11.32,5.86-18.47,16.51-18.47,7.14,0,12.06,3.44,14.15,9.23l-8.09,3.5c-.61-2.7-2.56-4.85-6.07-4.85-4.04,0-6.13,2.9-6.13,7.35v6.6c0,4.45,2.09,7.28,6.13,7.28s5.59-2.43,6.6-5.26l7.75,3.37c-2.36,6.74-7.41,9.77-14.36,9.77-10.65,0-16.51-7.21-16.51-18.53Z"/>
      <path class="cls-13" d="M488.56,345.42c-6.88,0-10.51-3.57-10.51-10.31v-17.32h-4.99v-7.75h2.49c2.7,0,3.5-1.35,3.5-3.77v-5.8h8.96v9.57h7.01v7.75h-7.01v19.88h6.47v7.75h-5.93Z"/>
      <path class="cls-13" d="M517.88,345.42v-35.38h9.98v6h.4c1.28-3.71,4.25-6.81,9.84-6.81,7.21,0,11.05,5.12,11.05,14.02v22.17h-9.97v-21.37c0-4.52-1.28-6.74-4.92-6.74-3.23,0-6.4,1.68-6.4,5.19v22.92h-9.98Z"/>
      <path class="cls-13" d="M584.2,345.42c-3.57,0-6.13-2.43-6.74-6.2h-.4c-1.08,4.58-4.99,7.01-10.38,7.01-7.08,0-10.99-4.18-10.99-10.31,0-7.48,5.8-11.05,15.16-11.05h5.59v-2.22c0-3.44-1.68-5.59-5.86-5.59s-6.07,2.02-7.62,4.18l-5.93-5.26c2.83-4.18,6.88-6.74,14.29-6.74,9.97,0,15.1,4.58,15.1,12.94v15.5h3.3v7.75h-5.53ZM576.45,334.7v-4.18h-4.85c-3.84,0-5.86,1.42-5.86,3.98v1.01c0,2.56,1.69,3.77,4.65,3.77,3.3,0,6.07-1.35,6.07-4.58Z"/>
      <path class="cls-13" d="M622.55,345.42c-3.57,0-6.13-2.43-6.74-6.2h-.4c-1.08,4.58-4.99,7.01-10.38,7.01-7.08,0-10.99-4.18-10.99-10.31,0-7.48,5.8-11.05,15.16-11.05h5.59v-2.22c0-3.44-1.68-5.59-5.86-5.59s-6.07,2.02-7.62,4.18l-5.93-5.26c2.83-4.18,6.88-6.74,14.29-6.74,9.97,0,15.1,4.58,15.1,12.94v15.5h3.3v7.75h-5.53ZM614.79,334.7v-4.18h-4.85c-3.84,0-5.86,1.42-5.86,3.98v1.01c0,2.56,1.69,3.77,4.65,3.77,3.3,0,6.07-1.35,6.07-4.58Z"/>
      <path class="cls-13" d="M634.74,345.42v-35.38h9.98v7.68h.34c.81-3.91,3.5-7.68,9.03-7.68h1.75v9.3h-2.49c-5.8,0-8.63,1.28-8.63,5.39v20.69h-9.98Z"/>
      <path class="cls-13" d="M677.74,340.76v-1.35c0-3.1,1.89-5.39,5.93-5.39s5.93,2.29,5.93,5.39v1.35c0,3.1-1.89,5.39-5.93,5.39s-5.93-2.29-5.93-5.39Z"/>
      <path class="cls-13" d="M698.63,340.76v-1.35c0-3.1,1.89-5.39,5.93-5.39s5.93,2.29,5.93,5.39v1.35c0,3.1-1.89,5.39-5.93,5.39s-5.93-2.29-5.93-5.39Z"/>
      <path class="cls-13" d="M719.53,340.76v-1.35c0-3.1,1.89-5.39,5.93-5.39s5.93,2.29,5.93,5.39v1.35c0,3.1-1.89,5.39-5.93,5.39s-5.93-2.29-5.93-5.39Z"/>
    </g>
    <path class="cls-8" d="M747.14,558.96s.41-15.11-11.74-22.47"/>
    <path class="cls-8" d="M616.92,539.55l33.71,24.08c8.1,5.78,13.27,14.81,14.17,24.72l3.18,34.94"/>
    <line class="cls-8" x1="678.91" y1="533.43" x2="709.35" y2="566.11"/>
    <polygon class="cls-1" points="672.98 573.77 407.98 600.57 330.67 517.55 572.75 503.3 672.98 573.77"/>
    <polygon class="cls-1" points="328.92 519.7 325.6 566.11 401.33 642.6 407.98 600.57 328.92 519.7"/>
    <polygon class="cls-10" points="404.41 643.6 670.62 618.4 675.05 576.53 407.98 600.57 404.41 643.6"/>
    <path class="cls-3" d="M586.81,622.99l-2.72-25.02-28.43-41.36c-57.7-33.7-28.56-45.45-28.56-45.45,45.49-18.89,95.17,31.47,95.17,31.47,4.28-40.47,59.2-9,59.2-9,1.13-25.21,51.87,5.94,51.87,5.94,16.09-9.45,37.3,24.19,37.3,24.19l13.79,156.26c-29.11,57.7-140.94,22.98-140.94,22.98l-16.34-12.26s-66.77-53.9-71.51-69.13c-6.28-20.15-1.02-50.3-1.02-50.3l10.32-29.07c.96-2.03,3.74-2.19,5-.33,3.83,5.67,9.44,9.97,11.98,16.7,2.68,7.13,2.27,17.3,4.89,24.38Z"/>
    <polyline class="cls-3" points="628.22 551.94 647.28 569.64 657.16 602.32"/>
    <line class="cls-3" x1="681.47" y1="533.63" x2="706.86" y2="549.77"/>
    <line class="cls-3" x1="733.34" y1="539.57" x2="747.14" y2="547.72"/>
    <path class="cls-1" d="M522.17,514.84s10.48,17.26,31.25,21.65c0,0,6.47-10.94,18.38-14s9.53-2.79,9.53-2.79c0,0-18.79-13.64-27.23-14.85-9.91-1.42-18.92-4.8-31.93,9.99Z"/>
    <path class="cls-3" d="M643.49,742.99l85.16,115.84,51.32,62.51c5.34,1.94,81.87,28.54,129.02-14.23,6.84-6.21,15.05-15.67,21.55-29.89-48.71-52.4-97.41-104.8-146.12-157.2"/>
    <g>
      <path class="cls-12" d="M402.6,549.41c-7.99.89-14.42-.58-18.42-4.3l-10.44-9.71-6.32.52-4.83-4.46,3.22-.24c3.44-.25,3.64-1.1,2.15-2.49l-3.59-3.34,11.31-.72,5.73,5.4,8.41-.62,4.48,4.27-8.3.68,11.56,10.9,7.42-.77,4.34,4.13-6.71.75Z"/>
      <path class="cls-12" d="M444.47,544.74c-3.52.39-7.31-.55-9.86-2.39l-.41.04c1.27,2.44-1.46,4.11-7.04,4.74-7.51.84-14.04-.87-17.42-4.12-4.16-3.99.32-6.49,10.48-7.4l5.89-.53-1.17-1.15c-1.81-1.79-4.74-2.77-9.21-2.4-4.33.35-5.51,1.62-6.04,2.91l-9.6-2.28c.87-2.52,4-4.24,12.2-4.84,10.65-.78,18.33,1.2,22.62,5.48l7.84,7.82,3.22-.33,3.83,3.84-5.35.6ZM431.25,540.15l-2.17-2.14-5.06.48c-4.07.39-5.48,1.34-4.1,2.68l.54.53c1.37,1.33,3.8,1.78,6.91,1.45,3.42-.36,5.55-1.34,3.87-2.99Z"/>
      <path class="cls-12" d="M431.37,518.44l9.87-.58,10,10.22.32-.03c-.94-2.01,1.36-3.68,5.59-3.99,8.08-.59,15.11,2.2,20.5,7.86,5.32,5.59,4.33,9.04-3.32,9.9-4.01.45-8.83-.54-11.55-2.29l-.3.03,2.79,2.85-9.14,1.02-24.75-25ZM470.1,534.23l-2.82-2.93c-2.06-2.14-5.89-3.33-9.32-3.05-3.48.28-5.12,1.46-3.56,3.05l4.99,5.1c1.53,1.57,4.96,2.25,8.33,1.9s4.42-1.97,2.38-4.08Z"/>
    </g>
    <g>
      <line class="cls-4" x1="418.5" y1="565.43" x2="475.97" y2="559.35"/>
      <polygon class="cls-12" points="405.16 566.84 424.77 572.54 419.49 565.33 423.14 557.18 405.16 566.84"/>
    </g>
    <g>
      <line class="cls-4" x1="473.52" y1="577.94" x2="416.05" y2="584.02"/>
      <polygon class="cls-12" points="486.86 576.53 467.25 570.84 472.52 578.05 468.87 586.2 486.86 576.53"/>
    </g>
    <line class="cls-4" x1="522.17" y1="658.51" x2="522.17" y2="659.19"/>
  </g>
</svg>