<svg xmlns="http://www.w3.org/2000/svg" xmlns:xlink="http://www.w3.org/1999/xlink" width="1122" zoomAndPan="magnify" viewBox="0 0 841.92 1190.250009" height="1587" preserveAspectRatio="xMidYMid meet" version="1.0"><defs><clipPath id="46c091d3f5"><path d="M 0.226562 45 L 841.613281 45 L 841.613281 1121 L 0.226562 1121 Z M 0.226562 45 " clip-rule="nonzero"/></clipPath><clipPath id="e4daafb5be"><path d="M 633.574219 185.429688 L 668.050781 185.429688 L 668.050781 219.910156 L 633.574219 219.910156 Z M 633.574219 185.429688 " clip-rule="nonzero"/></clipPath><clipPath id="007f556fdb"><path d="M 567.941406 599.707031 L 602.417969 599.707031 L 602.417969 634.183594 L 567.941406 634.183594 Z M 567.941406 599.707031 " clip-rule="nonzero"/></clipPath><clipPath id="adf0c38ab9"><path d="M 27 398 L 62 398 L 62 434 L 27 434 Z M 27 398 " clip-rule="nonzero"/></clipPath><clipPath id="3ae4ea5ff0"><path d="M 69.054688 414.097656 L 46.441406 440.125 L 20.414062 417.511719 L 43.027344 391.484375 Z M 69.054688 414.097656 " clip-rule="nonzero"/></clipPath><clipPath id="90c3a021b7"><path d="M 69.054688 414.097656 L 46.441406 440.125 L 20.414062 417.511719 L 43.027344 391.484375 Z M 69.054688 414.097656 " clip-rule="nonzero"/></clipPath><clipPath id="cdd24cbfa2"><path d="M 36 409 L 52 409 L 52 424 L 36 424 Z M 36 409 " clip-rule="nonzero"/></clipPath><clipPath id="7060456996"><path d="M 69.054688 414.097656 L 46.441406 440.125 L 20.414062 417.511719 L 43.027344 391.484375 Z M 69.054688 414.097656 " clip-rule="nonzero"/></clipPath><clipPath id="a43b438ea1"><path d="M 69.054688 414.097656 L 46.441406 440.125 L 20.414062 417.511719 L 43.027344 391.484375 Z M 69.054688 414.097656 " clip-rule="nonzero"/></clipPath><clipPath id="bb944da880"><path d="M 42 403 L 58 403 L 58 417 L 42 417 Z M 42 403 " clip-rule="nonzero"/></clipPath><clipPath id="8354ba4ba1"><path d="M 69.054688 414.097656 L 46.441406 440.125 L 20.414062 417.511719 L 43.027344 391.484375 Z M 69.054688 414.097656 " clip-rule="nonzero"/></clipPath><clipPath id="edae0f03cb"><path d="M 69.054688 414.097656 L 46.441406 440.125 L 20.414062 417.511719 L 43.027344 391.484375 Z M 69.054688 414.097656 " clip-rule="nonzero"/></clipPath><clipPath id="9b81c0bc83"><path d="M 283.757812 816.945312 L 318.234375 816.945312 L 318.234375 851.421875 L 283.757812 851.421875 Z M 283.757812 816.945312 " clip-rule="nonzero"/></clipPath><clipPath id="0dd4a681e5"><path d="M 644.046875 1054.675781 L 678.523438 1054.675781 L 678.523438 1089.152344 L 644.046875 1089.152344 Z M 644.046875 1054.675781 " clip-rule="nonzero"/></clipPath></defs><g clip-path="url(#46c091d3f5)"><path stroke-linecap="butt" transform="matrix(0.749528, 0, 0, 0.749528, -131.749088, 88.312114)" fill="none" stroke-linejoin="miter" d="M 53.501223 152.820703 L 29.501736 152.820703 C 16.243387 152.820703 5.502249 142.074353 5.502249 128.821216 L 5.502249 73.499922 C 5.502249 35.945024 35.943292 5.498769 73.49819 5.498769 L 135.182866 5.498769 C 172.737764 5.498769 203.184019 35.945024 203.184019 73.499922 L 203.184019 84.81955 C 203.184019 122.374448 233.630274 152.820703 271.185173 152.820703 L 1209.156015 152.820703 C 1246.710913 152.820703 1277.157168 183.261747 1277.157168 220.816645 L 1277.157168 359.669705 C 1277.157168 397.224603 1246.710913 427.670858 1209.156015 427.670858 L 271.185173 427.670858 C 233.630274 427.670858 203.184019 458.111902 203.184019 495.6668 L 203.184019 637.433152 C 203.184019 674.98805 233.630274 705.429094 271.185173 705.429094 L 1209.156015 705.429094 C 1246.710913 705.429094 1277.157168 735.875349 1277.157168 773.430247 L 1277.157168 930.153935 C 1277.157168 967.714045 1246.710913 998.155088 1209.156015 998.155088 L 271.185173 998.155088 C 233.630274 998.155088 203.184019 1028.601343 203.184019 1066.156241 L 203.184019 1247.025342 C 203.184019 1284.58024 233.630274 1315.026495 271.185173 1315.026495 L 1233.452564 1315.026495 C 1245.043196 1315.026495 1256.159571 1310.419427 1264.357441 1302.226768 C 1272.5501 1294.028898 1277.157168 1282.912523 1277.157168 1271.321891 C 1277.157168 1259.731259 1281.759024 1248.614884 1289.956895 1240.417014 C 1298.154765 1232.219143 1309.27114 1227.617287 1320.861772 1227.617287 L 1367.443187 1227.617287 C 1374.39027 1227.617287 1380.018814 1233.245832 1380.018814 1240.192914 L 1380.018814 1252.768542 " stroke="#e0e0e0" stroke-width="11" stroke-opacity="1" stroke-miterlimit="4"/></g><g clip-path="url(#e4daafb5be)"><path fill="#d8d4d4" d="M 668.414062 202.851562 C 668.414062 203.421875 668.386719 203.992188 668.328125 204.558594 C 668.273438 205.125 668.191406 205.691406 668.078125 206.25 C 667.96875 206.808594 667.828125 207.363281 667.664062 207.910156 C 667.5 208.453125 667.304688 208.992188 667.085938 209.519531 C 666.871094 210.046875 666.625 210.558594 666.355469 211.0625 C 666.085938 211.566406 665.792969 212.054688 665.476562 212.53125 C 665.160156 213.003906 664.820312 213.460938 664.460938 213.902344 C 664.097656 214.34375 663.714844 214.765625 663.3125 215.167969 C 662.90625 215.574219 662.484375 215.957031 662.042969 216.316406 C 661.605469 216.679688 661.144531 217.019531 660.671875 217.335938 C 660.195312 217.652344 659.707031 217.945312 659.207031 218.214844 C 658.703125 218.484375 658.1875 218.726562 657.660156 218.945312 C 657.132812 219.164062 656.597656 219.355469 656.050781 219.523438 C 655.503906 219.6875 654.953125 219.824219 654.390625 219.9375 C 653.832031 220.046875 653.269531 220.132812 652.699219 220.1875 C 652.132812 220.246094 651.5625 220.273438 650.992188 220.273438 C 650.421875 220.273438 649.851562 220.246094 649.285156 220.1875 C 648.71875 220.132812 648.152344 220.046875 647.59375 219.9375 C 647.035156 219.824219 646.480469 219.6875 645.9375 219.523438 C 645.390625 219.355469 644.855469 219.164062 644.328125 218.945312 C 643.800781 218.726562 643.285156 218.484375 642.78125 218.214844 C 642.277344 217.945312 641.789062 217.652344 641.316406 217.335938 C 640.839844 217.019531 640.382812 216.679688 639.941406 216.316406 C 639.5 215.957031 639.078125 215.574219 638.675781 215.167969 C 638.269531 214.765625 637.890625 214.34375 637.527344 213.902344 C 637.164062 213.460938 636.824219 213.003906 636.507812 212.53125 C 636.191406 212.054688 635.898438 211.566406 635.628906 211.0625 C 635.359375 210.558594 635.117188 210.046875 634.898438 209.519531 C 634.679688 208.992188 634.488281 208.453125 634.324219 207.910156 C 634.15625 207.363281 634.019531 206.808594 633.90625 206.25 C 633.796875 205.691406 633.710938 205.125 633.65625 204.558594 C 633.601562 203.992188 633.574219 203.421875 633.574219 202.851562 C 633.574219 202.28125 633.601562 201.710938 633.65625 201.144531 C 633.710938 200.578125 633.796875 200.011719 633.90625 199.453125 C 634.019531 198.894531 634.15625 198.339844 634.324219 197.792969 C 634.488281 197.25 634.679688 196.710938 634.898438 196.183594 C 635.117188 195.65625 635.359375 195.144531 635.628906 194.640625 C 635.898438 194.136719 636.191406 193.648438 636.507812 193.171875 C 636.824219 192.699219 637.164062 192.242188 637.527344 191.800781 C 637.890625 191.359375 638.269531 190.9375 638.675781 190.535156 C 639.078125 190.128906 639.5 189.746094 639.941406 189.386719 C 640.382812 189.023438 640.839844 188.683594 641.316406 188.367188 C 641.789062 188.050781 642.277344 187.757812 642.78125 187.488281 C 643.285156 187.21875 643.800781 186.976562 644.328125 186.757812 C 644.855469 186.539062 645.390625 186.347656 645.9375 186.179688 C 646.480469 186.015625 647.035156 185.875 647.59375 185.765625 C 648.152344 185.65625 648.71875 185.570312 649.285156 185.515625 C 649.851562 185.457031 650.421875 185.429688 650.992188 185.429688 C 651.5625 185.429688 652.132812 185.457031 652.699219 185.515625 C 653.269531 185.570312 653.832031 185.65625 654.390625 185.765625 C 654.953125 185.875 655.503906 186.015625 656.050781 186.179688 C 656.597656 186.347656 657.132812 186.539062 657.660156 186.757812 C 658.1875 186.976562 658.703125 187.21875 659.207031 187.488281 C 659.707031 187.757812 660.195312 188.050781 660.671875 188.367188 C 661.144531 188.683594 661.605469 189.023438 662.042969 189.386719 C 662.484375 189.746094 662.90625 190.128906 663.3125 190.535156 C 663.714844 190.9375 664.097656 191.359375 664.460938 191.800781 C 664.820312 192.242188 665.160156 192.699219 665.476562 193.171875 C 665.792969 193.648438 666.085938 194.136719 666.355469 194.640625 C 666.625 195.144531 666.871094 195.65625 667.085938 196.183594 C 667.304688 196.710938 667.5 197.25 667.664062 197.792969 C 667.828125 198.339844 667.96875 198.894531 668.078125 199.453125 C 668.191406 200.011719 668.273438 200.578125 668.328125 201.144531 C 668.386719 201.710938 668.414062 202.28125 668.414062 202.851562 Z M 668.414062 202.851562 " fill-opacity="1" fill-rule="nonzero"/></g><path fill="#ffffff" d="M 660.753906 202.675781 C 660.753906 202.605469 660.753906 202.570312 660.71875 202.5 C 660.71875 202.433594 660.683594 202.398438 660.683594 202.328125 C 660.683594 202.257812 660.648438 202.222656 660.613281 202.152344 C 660.578125 202.082031 660.578125 202.046875 660.542969 201.976562 C 660.507812 201.90625 660.472656 201.871094 660.4375 201.835938 C 660.402344 201.765625 660.367188 201.730469 660.332031 201.664062 C 660.296875 201.628906 660.296875 201.628906 660.296875 201.59375 L 653.617188 194.105469 C 652.917969 193.300781 651.691406 193.265625 650.921875 193.964844 C 650.117188 194.664062 650.082031 195.890625 650.785156 196.660156 L 656.273438 202.851562 L 650.75 209.042969 C 650.046875 209.847656 650.117188 211.039062 650.886719 211.738281 C 651.238281 212.050781 651.691406 212.226562 652.148438 212.226562 C 652.671875 212.226562 653.195312 212.015625 653.582031 211.597656 L 660.261719 204.144531 C 660.296875 204.109375 660.296875 204.109375 660.296875 204.074219 C 660.332031 204.007812 660.367188 203.972656 660.402344 203.902344 C 660.4375 203.867188 660.472656 203.796875 660.507812 203.761719 C 660.542969 203.691406 660.578125 203.65625 660.578125 203.585938 C 660.613281 203.515625 660.613281 203.480469 660.648438 203.410156 C 660.648438 203.339844 660.683594 203.304688 660.683594 203.238281 C 660.683594 203.167969 660.71875 203.132812 660.71875 203.0625 C 660.71875 202.992188 660.71875 202.957031 660.71875 202.886719 C 660.753906 202.78125 660.753906 202.746094 660.753906 202.675781 Z M 660.753906 202.675781 " fill-opacity="1" fill-rule="nonzero"/><path fill="#ffffff" d="M 651.273438 204.074219 C 651.308594 204.007812 651.34375 203.972656 651.378906 203.902344 C 651.414062 203.867188 651.449219 203.796875 651.484375 203.761719 C 651.519531 203.691406 651.554688 203.65625 651.554688 203.585938 C 651.585938 203.515625 651.585938 203.480469 651.621094 203.410156 C 651.621094 203.339844 651.65625 203.304688 651.65625 203.238281 C 651.65625 203.167969 651.691406 203.132812 651.691406 203.0625 C 651.691406 202.992188 651.691406 202.957031 651.691406 202.886719 C 651.691406 202.816406 651.691406 202.78125 651.691406 202.710938 C 651.691406 202.640625 651.691406 202.605469 651.65625 202.535156 C 651.65625 202.464844 651.621094 202.433594 651.621094 202.363281 C 651.621094 202.292969 651.585938 202.257812 651.554688 202.1875 C 651.519531 202.117188 651.519531 202.082031 651.484375 202.011719 C 651.449219 201.941406 651.414062 201.90625 651.378906 201.871094 C 651.34375 201.800781 651.308594 201.765625 651.273438 201.695312 C 651.238281 201.664062 651.238281 201.664062 651.238281 201.628906 L 644.554688 194.105469 C 643.855469 193.300781 642.632812 193.265625 641.863281 193.964844 C 641.058594 194.664062 641.023438 195.890625 641.722656 196.660156 L 647.25 202.851562 L 641.722656 209.042969 C 641.023438 209.847656 641.09375 211.039062 641.863281 211.738281 C 642.210938 212.050781 642.667969 212.226562 643.121094 212.226562 C 643.648438 212.226562 644.171875 212.015625 644.554688 211.597656 L 651.238281 204.144531 C 651.273438 204.109375 651.273438 204.074219 651.273438 204.074219 Z M 651.273438 204.074219 " fill-opacity="1" fill-rule="nonzero"/><g clip-path="url(#007f556fdb)"><path fill="#d8d4d4" d="M 602.78125 617.125 C 602.78125 617.699219 602.753906 618.265625 602.699219 618.835938 C 602.644531 619.402344 602.558594 619.964844 602.449219 620.527344 C 602.335938 621.085938 602.199219 621.636719 602.03125 622.183594 C 601.867188 622.730469 601.675781 623.265625 601.457031 623.792969 C 601.238281 624.320312 600.996094 624.835938 600.726562 625.339844 C 600.457031 625.84375 600.164062 626.332031 599.847656 626.804688 C 599.53125 627.28125 599.191406 627.738281 598.828125 628.179688 C 598.464844 628.621094 598.082031 629.042969 597.679688 629.445312 C 597.277344 629.847656 596.855469 630.230469 596.414062 630.59375 C 595.972656 630.957031 595.515625 631.292969 595.039062 631.613281 C 594.566406 631.929688 594.078125 632.222656 593.574219 632.492188 C 593.070312 632.757812 592.554688 633.003906 592.027344 633.222656 C 591.5 633.441406 590.964844 633.632812 590.417969 633.796875 C 589.871094 633.964844 589.320312 634.101562 588.761719 634.210938 C 588.199219 634.324219 587.636719 634.40625 587.070312 634.464844 C 586.5 634.519531 585.933594 634.546875 585.363281 634.546875 C 584.792969 634.546875 584.222656 634.519531 583.65625 634.464844 C 583.085938 634.40625 582.523438 634.324219 581.964844 634.210938 C 581.402344 634.101562 580.851562 633.964844 580.304688 633.796875 C 579.757812 633.632812 579.222656 633.441406 578.695312 633.222656 C 578.167969 633.003906 577.652344 632.757812 577.148438 632.492188 C 576.648438 632.222656 576.15625 631.929688 575.683594 631.613281 C 575.210938 631.292969 574.75 630.957031 574.308594 630.59375 C 573.871094 630.230469 573.445312 629.847656 573.042969 629.445312 C 572.640625 629.042969 572.257812 628.621094 571.894531 628.179688 C 571.535156 627.738281 571.195312 627.28125 570.878906 626.804688 C 570.558594 626.332031 570.265625 625.84375 570 625.339844 C 569.730469 624.835938 569.484375 624.320312 569.265625 623.792969 C 569.050781 623.265625 568.855469 622.730469 568.691406 622.183594 C 568.527344 621.636719 568.386719 621.085938 568.277344 620.527344 C 568.164062 619.964844 568.082031 619.402344 568.023438 618.835938 C 567.96875 618.265625 567.941406 617.699219 567.941406 617.125 C 567.941406 616.554688 567.96875 615.988281 568.023438 615.417969 C 568.082031 614.851562 568.164062 614.289062 568.277344 613.726562 C 568.386719 613.167969 568.527344 612.617188 568.691406 612.070312 C 568.855469 611.523438 569.050781 610.988281 569.265625 610.460938 C 569.484375 609.933594 569.730469 609.417969 570 608.914062 C 570.265625 608.410156 570.558594 607.921875 570.878906 607.449219 C 571.195312 606.972656 571.535156 606.515625 571.894531 606.074219 C 572.257812 605.632812 572.640625 605.210938 573.042969 604.808594 C 573.445312 604.40625 573.871094 604.023438 574.308594 603.660156 C 574.75 603.296875 575.210938 602.960938 575.683594 602.640625 C 576.15625 602.324219 576.648438 602.03125 577.148438 601.761719 C 577.652344 601.496094 578.167969 601.25 578.695312 601.03125 C 579.222656 600.8125 579.757812 600.621094 580.304688 600.457031 C 580.851562 600.289062 581.402344 600.152344 581.964844 600.039062 C 582.523438 599.929688 583.085938 599.847656 583.65625 599.789062 C 584.222656 599.734375 584.792969 599.707031 585.363281 599.707031 C 585.933594 599.707031 586.5 599.734375 587.070312 599.789062 C 587.636719 599.847656 588.199219 599.929688 588.761719 600.039062 C 589.320312 600.152344 589.871094 600.289062 590.417969 600.457031 C 590.964844 600.621094 591.5 600.8125 592.027344 601.03125 C 592.554688 601.25 593.070312 601.496094 593.574219 601.761719 C 594.078125 602.03125 594.566406 602.324219 595.039062 602.640625 C 595.515625 602.960938 595.972656 603.296875 596.414062 603.660156 C 596.855469 604.023438 597.277344 604.40625 597.679688 604.808594 C 598.082031 605.210938 598.464844 605.632812 598.828125 606.074219 C 599.191406 606.515625 599.53125 606.972656 599.847656 607.449219 C 600.164062 607.921875 600.457031 608.410156 600.726562 608.914062 C 600.996094 609.417969 601.238281 609.933594 601.457031 610.460938 C 601.675781 610.988281 601.867188 611.523438 602.03125 612.070312 C 602.199219 612.617188 602.335938 613.167969 602.449219 613.726562 C 602.558594 614.289062 602.644531 614.851562 602.699219 615.417969 C 602.753906 615.988281 602.78125 616.554688 602.78125 617.125 Z M 602.78125 617.125 " fill-opacity="1" fill-rule="nonzero"/></g><path fill="#ffffff" d="M 595.121094 616.953125 C 595.121094 616.882812 595.121094 616.847656 595.085938 616.777344 C 595.085938 616.707031 595.050781 616.671875 595.050781 616.601562 C 595.050781 616.53125 595.015625 616.496094 594.980469 616.425781 C 594.945312 616.355469 594.945312 616.320312 594.910156 616.253906 C 594.875 616.183594 594.84375 616.148438 594.808594 616.113281 C 594.773438 616.042969 594.738281 616.007812 594.703125 615.9375 C 594.667969 615.902344 594.667969 615.902344 594.667969 615.867188 L 587.984375 608.382812 C 587.285156 607.578125 586.0625 607.542969 585.292969 608.242188 C 584.488281 608.941406 584.453125 610.164062 585.152344 610.933594 L 590.644531 617.125 L 585.117188 623.320312 C 584.417969 624.125 584.488281 625.3125 585.257812 626.011719 C 585.605469 626.328125 586.0625 626.5 586.515625 626.5 C 587.042969 626.5 587.566406 626.292969 587.949219 625.871094 L 594.632812 618.421875 C 594.667969 618.386719 594.667969 618.386719 594.667969 618.351562 C 594.703125 618.28125 594.738281 618.246094 594.773438 618.175781 C 594.808594 618.140625 594.84375 618.070312 594.875 618.035156 C 594.910156 617.964844 594.945312 617.929688 594.945312 617.863281 C 594.980469 617.792969 594.980469 617.757812 595.015625 617.6875 C 595.015625 617.617188 595.050781 617.582031 595.050781 617.511719 C 595.050781 617.441406 595.085938 617.40625 595.085938 617.335938 C 595.085938 617.265625 595.085938 617.230469 595.085938 617.160156 C 595.121094 617.058594 595.121094 617.023438 595.121094 616.953125 Z M 595.121094 616.953125 " fill-opacity="1" fill-rule="nonzero"/><path fill="#ffffff" d="M 585.640625 618.351562 C 585.675781 618.28125 585.710938 618.246094 585.746094 618.175781 C 585.78125 618.140625 585.816406 618.070312 585.851562 618.035156 C 585.886719 617.964844 585.921875 617.929688 585.921875 617.863281 C 585.957031 617.792969 585.957031 617.757812 585.992188 617.6875 C 585.992188 617.617188 586.027344 617.582031 586.027344 617.511719 C 586.027344 617.441406 586.0625 617.40625 586.0625 617.335938 C 586.0625 617.265625 586.0625 617.230469 586.0625 617.160156 C 586.0625 617.09375 586.0625 617.058594 586.0625 616.988281 C 586.0625 616.917969 586.0625 616.882812 586.027344 616.8125 C 586.027344 616.742188 585.992188 616.707031 585.992188 616.636719 C 585.992188 616.566406 585.957031 616.53125 585.921875 616.460938 C 585.886719 616.390625 585.886719 616.355469 585.851562 616.289062 C 585.816406 616.21875 585.78125 616.183594 585.746094 616.148438 C 585.710938 616.078125 585.675781 616.042969 585.640625 615.972656 C 585.605469 615.9375 585.605469 615.9375 585.605469 615.902344 L 578.925781 608.382812 C 578.226562 607.578125 577 607.542969 576.230469 608.242188 C 575.425781 608.941406 575.390625 610.164062 576.09375 610.933594 L 581.617188 617.125 L 576.09375 623.320312 C 575.390625 624.125 575.460938 625.3125 576.230469 626.011719 C 576.582031 626.328125 577.035156 626.5 577.492188 626.5 C 578.015625 626.5 578.539062 626.292969 578.925781 625.871094 L 585.605469 618.421875 C 585.640625 618.386719 585.640625 618.351562 585.640625 618.351562 Z M 585.640625 618.351562 " fill-opacity="1" fill-rule="nonzero"/><g clip-path="url(#adf0c38ab9)"><g clip-path="url(#3ae4ea5ff0)"><g clip-path="url(#90c3a021b7)"><path fill="#d8d4d4" d="M 33.054688 428.972656 C 32.625 428.601562 32.210938 428.207031 31.820312 427.789062 C 31.429688 427.375 31.058594 426.945312 30.707031 426.492188 C 30.359375 426.042969 30.03125 425.574219 29.726562 425.089844 C 29.425781 424.609375 29.144531 424.109375 28.890625 423.601562 C 28.636719 423.089844 28.40625 422.566406 28.203125 422.035156 C 28 421.503906 27.824219 420.960938 27.671875 420.410156 C 27.523438 419.859375 27.402344 419.304688 27.304688 418.742188 C 27.210938 418.179688 27.140625 417.613281 27.101562 417.042969 C 27.0625 416.472656 27.050781 415.90625 27.066406 415.335938 C 27.082031 414.765625 27.125 414.195312 27.199219 413.628906 C 27.269531 413.0625 27.367188 412.503906 27.496094 411.945312 C 27.621094 411.390625 27.777344 410.839844 27.957031 410.300781 C 28.140625 409.757812 28.34375 409.226562 28.578125 408.707031 C 28.8125 408.1875 29.070312 407.679688 29.351562 407.183594 C 29.636719 406.6875 29.941406 406.207031 30.273438 405.742188 C 30.601562 405.277344 30.953125 404.828125 31.328125 404.398438 C 31.703125 403.96875 32.097656 403.554688 32.511719 403.164062 C 32.925781 402.773438 33.359375 402.402344 33.8125 402.050781 C 34.261719 401.703125 34.730469 401.375 35.210938 401.074219 C 35.695312 400.769531 36.191406 400.488281 36.703125 400.234375 C 37.214844 399.980469 37.734375 399.75 38.269531 399.546875 C 38.800781 399.34375 39.34375 399.167969 39.894531 399.019531 C 40.445312 398.867188 41 398.746094 41.5625 398.648438 C 42.125 398.554688 42.691406 398.484375 43.261719 398.445312 C 43.828125 398.40625 44.398438 398.394531 44.96875 398.410156 C 45.539062 398.425781 46.109375 398.46875 46.671875 398.542969 C 47.238281 398.613281 47.800781 398.714844 48.355469 398.839844 C 48.914062 398.96875 49.460938 399.121094 50.003906 399.300781 C 50.542969 399.484375 51.074219 399.691406 51.597656 399.921875 C 52.117188 400.15625 52.625 400.414062 53.121094 400.695312 C 53.617188 400.980469 54.097656 401.285156 54.5625 401.617188 C 55.027344 401.945312 55.472656 402.300781 55.90625 402.671875 C 56.335938 403.046875 56.746094 403.441406 57.140625 403.855469 C 57.53125 404.269531 57.902344 404.703125 58.25 405.15625 C 58.601562 405.605469 58.925781 406.074219 59.230469 406.554688 C 59.535156 407.039062 59.8125 407.535156 60.066406 408.046875 C 60.324219 408.558594 60.550781 409.078125 60.753906 409.613281 C 60.957031 410.144531 61.136719 410.6875 61.285156 411.238281 C 61.4375 411.789062 61.558594 412.34375 61.652344 412.90625 C 61.75 413.46875 61.816406 414.035156 61.859375 414.605469 C 61.898438 415.171875 61.910156 415.742188 61.894531 416.3125 C 61.878906 416.882812 61.832031 417.453125 61.761719 418.019531 C 61.691406 418.582031 61.589844 419.144531 61.464844 419.703125 C 61.335938 420.257812 61.183594 420.804688 61 421.347656 C 60.820312 421.886719 60.613281 422.417969 60.378906 422.941406 C 60.148438 423.460938 59.890625 423.96875 59.605469 424.464844 C 59.324219 424.960938 59.015625 425.441406 58.6875 425.90625 C 58.355469 426.371094 58.003906 426.820312 57.628906 427.25 C 57.253906 427.679688 56.859375 428.089844 56.445312 428.484375 C 56.03125 428.875 55.597656 429.246094 55.148438 429.59375 C 54.695312 429.945312 54.230469 430.269531 53.746094 430.574219 C 53.265625 430.878906 52.765625 431.15625 52.257812 431.414062 C 51.746094 431.667969 51.222656 431.894531 50.691406 432.097656 C 50.15625 432.304688 49.617188 432.480469 49.066406 432.628906 C 48.515625 432.78125 47.960938 432.902344 47.398438 433 C 46.835938 433.09375 46.269531 433.160156 45.699219 433.203125 C 45.128906 433.242188 44.558594 433.253906 43.988281 433.238281 C 43.417969 433.222656 42.851562 433.175781 42.285156 433.105469 C 41.71875 433.035156 41.160156 432.933594 40.601562 432.808594 C 40.046875 432.679688 39.496094 432.527344 38.957031 432.34375 C 38.414062 432.164062 37.882812 431.957031 37.363281 431.722656 C 36.84375 431.492188 36.335938 431.234375 35.839844 430.949219 C 35.34375 430.667969 34.863281 430.359375 34.398438 430.03125 C 33.933594 429.699219 33.484375 429.347656 33.054688 428.972656 Z M 33.054688 428.972656 " fill-opacity="1" fill-rule="nonzero"/></g></g></g><g clip-path="url(#cdd24cbfa2)"><g clip-path="url(#7060456996)"><g clip-path="url(#a43b438ea1)"><path fill="#ffffff" d="M 38.210938 423.304688 C 38.261719 423.351562 38.289062 423.375 38.367188 423.394531 C 38.417969 423.441406 38.46875 423.4375 38.519531 423.484375 C 38.574219 423.527344 38.621094 423.523438 38.699219 423.542969 C 38.773438 423.5625 38.800781 423.585938 38.875 423.605469 C 38.953125 423.625 39 423.621094 39.050781 423.617188 C 39.125 423.636719 39.175781 423.636719 39.25 423.65625 C 39.300781 423.652344 39.300781 423.652344 39.328125 423.671875 L 49.359375 423.539062 C 50.425781 423.539062 51.257812 422.636719 51.234375 421.597656 C 51.230469 420.53125 50.332031 419.703125 49.292969 419.726562 L 41.015625 419.8125 L 39.964844 411.578125 C 39.816406 410.523438 38.875 409.792969 37.839844 409.917969 C 37.375 409.972656 36.945312 410.203125 36.644531 410.546875 C 36.300781 410.941406 36.117188 411.476562 36.179688 412.042969 L 37.421875 421.972656 C 37.425781 422.023438 37.425781 422.023438 37.453125 422.042969 C 37.480469 422.117188 37.484375 422.167969 37.515625 422.238281 C 37.519531 422.289062 37.550781 422.359375 37.550781 422.410156 C 37.582031 422.480469 37.585938 422.53125 37.636719 422.578125 C 37.667969 422.648438 37.695312 422.671875 37.726562 422.746094 C 37.777344 422.789062 37.78125 422.839844 37.832031 422.886719 C 37.886719 422.933594 37.890625 422.980469 37.941406 423.027344 C 37.996094 423.074219 38.023438 423.097656 38.074219 423.140625 C 38.132812 423.238281 38.15625 423.261719 38.210938 423.304688 Z M 38.210938 423.304688 " fill-opacity="1" fill-rule="nonzero"/></g></g></g><g clip-path="url(#bb944da880)"><g clip-path="url(#8354ba4ba1)"><g clip-path="url(#edae0f03cb)"><path fill="#ffffff" d="M 43.371094 415.230469 C 43.402344 415.304688 43.40625 415.355469 43.433594 415.425781 C 43.4375 415.476562 43.46875 415.546875 43.472656 415.597656 C 43.5 415.667969 43.503906 415.71875 43.558594 415.765625 C 43.585938 415.835938 43.613281 415.859375 43.644531 415.933594 C 43.695312 415.976562 43.699219 416.027344 43.753906 416.074219 C 43.804688 416.117188 43.808594 416.167969 43.863281 416.214844 C 43.914062 416.261719 43.941406 416.28125 43.996094 416.328125 C 44.046875 416.375 44.074219 416.398438 44.125 416.445312 C 44.179688 416.488281 44.207031 416.511719 44.28125 416.53125 C 44.335938 416.578125 44.382812 416.574219 44.4375 416.621094 C 44.488281 416.667969 44.539062 416.664062 44.613281 416.683594 C 44.691406 416.703125 44.714844 416.722656 44.792969 416.742188 C 44.867188 416.761719 44.917969 416.761719 44.964844 416.757812 C 45.042969 416.777344 45.089844 416.773438 45.167969 416.792969 C 45.214844 416.789062 45.214844 416.789062 45.242188 416.8125 L 55.300781 416.699219 C 56.367188 416.699219 57.199219 415.800781 57.175781 414.757812 C 57.175781 413.691406 56.273438 412.863281 55.234375 412.886719 L 46.933594 413 L 45.886719 404.765625 C 45.738281 403.710938 44.792969 402.980469 43.761719 403.105469 C 43.292969 403.160156 42.863281 403.390625 42.566406 403.734375 C 42.222656 404.128906 42.035156 404.664062 42.097656 405.230469 L 43.34375 415.160156 C 43.34375 415.210938 43.371094 415.230469 43.371094 415.230469 Z M 43.371094 415.230469 " fill-opacity="1" fill-rule="nonzero"/></g></g></g><g clip-path="url(#9b81c0bc83)"><path fill="#d8d4d4" d="M 283.394531 834.003906 C 283.394531 833.429688 283.421875 832.863281 283.480469 832.292969 C 283.535156 831.726562 283.617188 831.164062 283.730469 830.601562 C 283.839844 830.042969 283.980469 829.492188 284.144531 828.945312 C 284.3125 828.398438 284.503906 827.863281 284.722656 827.335938 C 284.9375 826.808594 285.183594 826.292969 285.453125 825.789062 C 285.722656 825.285156 286.015625 824.796875 286.332031 824.324219 C 286.648438 823.847656 286.988281 823.390625 287.347656 822.949219 C 287.710938 822.507812 288.09375 822.085938 288.496094 821.683594 C 288.902344 821.28125 289.324219 820.898438 289.765625 820.535156 C 290.203125 820.171875 290.664062 819.835938 291.136719 819.515625 C 291.613281 819.199219 292.101562 818.90625 292.601562 818.636719 C 293.105469 818.371094 293.621094 818.125 294.148438 817.90625 C 294.675781 817.6875 295.210938 817.496094 295.757812 817.332031 C 296.304688 817.164062 296.855469 817.027344 297.417969 816.917969 C 297.976562 816.804688 298.539062 816.722656 299.109375 816.664062 C 299.675781 816.609375 300.246094 816.582031 300.816406 816.582031 C 301.386719 816.582031 301.957031 816.609375 302.523438 816.664062 C 303.089844 816.722656 303.65625 816.804688 304.214844 816.917969 C 304.773438 817.027344 305.328125 817.164062 305.871094 817.332031 C 306.417969 817.496094 306.953125 817.6875 307.480469 817.90625 C 308.007812 818.125 308.523438 818.371094 309.027344 818.636719 C 309.53125 818.90625 310.019531 819.199219 310.492188 819.515625 C 310.96875 819.835938 311.425781 820.171875 311.867188 820.535156 C 312.308594 820.898438 312.730469 821.28125 313.132812 821.683594 C 313.539062 822.085938 313.917969 822.507812 314.28125 822.949219 C 314.644531 823.390625 314.984375 823.847656 315.300781 824.324219 C 315.617188 824.796875 315.910156 825.285156 316.179688 825.789062 C 316.449219 826.292969 316.691406 826.808594 316.910156 827.335938 C 317.128906 827.863281 317.320312 828.398438 317.484375 828.945312 C 317.652344 829.492188 317.789062 830.042969 317.902344 830.601562 C 318.011719 831.164062 318.097656 831.726562 318.152344 832.292969 C 318.207031 832.863281 318.234375 833.429688 318.234375 834.003906 C 318.234375 834.574219 318.207031 835.140625 318.152344 835.710938 C 318.097656 836.277344 318.011719 836.839844 317.902344 837.402344 C 317.789062 837.960938 317.652344 838.511719 317.484375 839.058594 C 317.320312 839.605469 317.128906 840.140625 316.910156 840.667969 C 316.691406 841.195312 316.449219 841.710938 316.179688 842.214844 C 315.910156 842.71875 315.617188 843.207031 315.300781 843.679688 C 314.984375 844.15625 314.644531 844.613281 314.28125 845.054688 C 313.917969 845.496094 313.539062 845.917969 313.132812 846.320312 C 312.730469 846.722656 312.308594 847.105469 311.867188 847.46875 C 311.425781 847.832031 310.96875 848.167969 310.492188 848.488281 C 310.019531 848.804688 309.53125 849.097656 309.027344 849.367188 C 308.523438 849.632812 308.007812 849.878906 307.480469 850.097656 C 306.953125 850.316406 306.417969 850.507812 305.871094 850.671875 C 305.328125 850.839844 304.773438 850.976562 304.214844 851.089844 C 303.65625 851.199219 303.089844 851.28125 302.523438 851.339844 C 301.957031 851.394531 301.386719 851.421875 300.816406 851.421875 C 300.246094 851.421875 299.675781 851.394531 299.109375 851.339844 C 298.539062 851.28125 297.976562 851.199219 297.417969 851.089844 C 296.855469 850.976562 296.304688 850.839844 295.757812 850.671875 C 295.210938 850.507812 294.675781 850.316406 294.148438 850.097656 C 293.621094 849.878906 293.105469 849.632812 292.601562 849.367188 C 292.101562 849.097656 291.613281 848.804688 291.136719 848.488281 C 290.664062 848.167969 290.203125 847.832031 289.765625 847.46875 C 289.324219 847.105469 288.902344 846.722656 288.496094 846.320312 C 288.09375 845.917969 287.710938 845.496094 287.347656 845.054688 C 286.988281 844.613281 286.648438 844.15625 286.332031 843.679688 C 286.015625 843.207031 285.722656 842.71875 285.453125 842.214844 C 285.183594 841.710938 284.9375 841.195312 284.722656 840.667969 C 284.503906 840.140625 284.3125 839.605469 284.144531 839.058594 C 283.980469 838.511719 283.839844 837.960938 283.730469 837.402344 C 283.617188 836.839844 283.535156 836.277344 283.480469 835.710938 C 283.421875 835.140625 283.394531 834.574219 283.394531 834.003906 Z M 283.394531 834.003906 " fill-opacity="1" fill-rule="nonzero"/></g><path fill="#ffffff" d="M 291.054688 834.175781 C 291.054688 834.246094 291.054688 834.28125 291.089844 834.351562 C 291.089844 834.421875 291.125 834.457031 291.125 834.527344 C 291.125 834.597656 291.160156 834.632812 291.195312 834.703125 C 291.230469 834.773438 291.230469 834.804688 291.265625 834.875 C 291.300781 834.945312 291.335938 834.980469 291.371094 835.015625 C 291.40625 835.085938 291.441406 835.121094 291.476562 835.191406 C 291.511719 835.226562 291.511719 835.226562 291.511719 835.261719 L 298.191406 842.746094 C 298.890625 843.550781 300.117188 843.585938 300.886719 842.886719 C 301.691406 842.1875 301.726562 840.964844 301.023438 840.195312 L 295.535156 834.003906 L 301.058594 827.808594 C 301.761719 827.003906 301.691406 825.816406 300.921875 825.117188 C 300.570312 824.800781 300.117188 824.628906 299.660156 824.628906 C 299.136719 824.628906 298.613281 824.835938 298.226562 825.257812 L 291.546875 832.707031 C 291.511719 832.742188 291.511719 832.742188 291.511719 832.777344 C 291.476562 832.847656 291.441406 832.882812 291.40625 832.953125 C 291.371094 832.988281 291.335938 833.058594 291.300781 833.09375 C 291.265625 833.164062 291.230469 833.199219 291.230469 833.265625 C 291.195312 833.335938 291.195312 833.371094 291.160156 833.441406 C 291.160156 833.511719 291.125 833.546875 291.125 833.617188 C 291.125 833.6875 291.089844 833.722656 291.089844 833.792969 C 291.089844 833.863281 291.089844 833.898438 291.089844 833.96875 C 291.054688 834.070312 291.054688 834.105469 291.054688 834.175781 Z M 291.054688 834.175781 " fill-opacity="1" fill-rule="nonzero"/><path fill="#ffffff" d="M 300.535156 832.777344 C 300.5 832.847656 300.464844 832.882812 300.429688 832.953125 C 300.394531 832.988281 300.359375 833.058594 300.324219 833.09375 C 300.289062 833.164062 300.253906 833.199219 300.253906 833.265625 C 300.222656 833.335938 300.222656 833.371094 300.1875 833.441406 C 300.1875 833.511719 300.152344 833.546875 300.152344 833.617188 C 300.152344 833.6875 300.117188 833.722656 300.117188 833.792969 C 300.117188 833.863281 300.117188 833.898438 300.117188 833.96875 C 300.117188 834.035156 300.117188 834.070312 300.117188 834.140625 C 300.117188 834.210938 300.117188 834.246094 300.152344 834.316406 C 300.152344 834.386719 300.1875 834.421875 300.1875 834.492188 C 300.1875 834.5625 300.222656 834.597656 300.253906 834.667969 C 300.289062 834.738281 300.289062 834.773438 300.324219 834.839844 C 300.359375 834.910156 300.394531 834.945312 300.429688 834.980469 C 300.464844 835.050781 300.5 835.085938 300.535156 835.15625 C 300.570312 835.191406 300.570312 835.191406 300.570312 835.226562 L 307.253906 842.746094 C 307.953125 843.550781 309.175781 843.585938 309.945312 842.886719 C 310.75 842.1875 310.785156 840.964844 310.085938 840.195312 L 304.558594 834.003906 L 310.085938 827.808594 C 310.785156 827.003906 310.714844 825.816406 309.945312 825.117188 C 309.597656 824.800781 309.140625 824.628906 308.6875 824.628906 C 308.160156 824.628906 307.636719 824.835938 307.253906 825.257812 L 300.570312 832.707031 C 300.535156 832.742188 300.535156 832.777344 300.535156 832.777344 Z M 300.535156 832.777344 " fill-opacity="1" fill-rule="nonzero"/><g clip-path="url(#0dd4a681e5)"><path fill="#d8d4d4" d="M 678.886719 1072.09375 C 678.886719 1072.667969 678.859375 1073.234375 678.804688 1073.804688 C 678.746094 1074.371094 678.664062 1074.933594 678.550781 1075.492188 C 678.441406 1076.054688 678.304688 1076.605469 678.136719 1077.152344 C 677.972656 1077.699219 677.78125 1078.234375 677.5625 1078.761719 C 677.34375 1079.289062 677.097656 1079.804688 676.832031 1080.308594 C 676.5625 1080.8125 676.269531 1081.300781 675.953125 1081.773438 C 675.632812 1082.25 675.296875 1082.707031 674.933594 1083.148438 C 674.570312 1083.589844 674.1875 1084.011719 673.785156 1084.414062 C 673.382812 1084.816406 672.960938 1085.199219 672.519531 1085.5625 C 672.078125 1085.921875 671.621094 1086.261719 671.144531 1086.582031 C 670.671875 1086.898438 670.183594 1087.191406 669.679688 1087.460938 C 669.175781 1087.726562 668.660156 1087.972656 668.132812 1088.191406 C 667.605469 1088.410156 667.070312 1088.601562 666.523438 1088.765625 C 665.976562 1088.933594 665.425781 1089.070312 664.867188 1089.179688 C 664.304688 1089.292969 663.742188 1089.375 663.175781 1089.433594 C 662.605469 1089.488281 662.039062 1089.515625 661.464844 1089.515625 C 660.894531 1089.515625 660.328125 1089.488281 659.757812 1089.433594 C 659.191406 1089.375 658.628906 1089.292969 658.066406 1089.179688 C 657.507812 1089.070312 656.957031 1088.933594 656.410156 1088.765625 C 655.863281 1088.601562 655.328125 1088.410156 654.800781 1088.191406 C 654.273438 1087.972656 653.757812 1087.726562 653.253906 1087.460938 C 652.75 1087.191406 652.261719 1086.898438 651.789062 1086.582031 C 651.3125 1086.261719 650.855469 1085.921875 650.414062 1085.5625 C 649.972656 1085.199219 649.550781 1084.816406 649.148438 1084.414062 C 648.746094 1084.011719 648.363281 1083.589844 648 1083.148438 C 647.636719 1082.707031 647.300781 1082.25 646.980469 1081.773438 C 646.664062 1081.300781 646.371094 1080.8125 646.101562 1080.308594 C 645.835938 1079.804688 645.589844 1079.289062 645.371094 1078.761719 C 645.152344 1078.234375 644.960938 1077.699219 644.796875 1077.152344 C 644.628906 1076.605469 644.492188 1076.054688 644.378906 1075.492188 C 644.269531 1074.933594 644.1875 1074.371094 644.128906 1073.804688 C 644.074219 1073.234375 644.046875 1072.667969 644.046875 1072.09375 C 644.046875 1071.523438 644.074219 1070.957031 644.128906 1070.386719 C 644.1875 1069.820312 644.269531 1069.257812 644.378906 1068.695312 C 644.492188 1068.136719 644.628906 1067.585938 644.796875 1067.039062 C 644.960938 1066.492188 645.152344 1065.957031 645.371094 1065.429688 C 645.589844 1064.902344 645.835938 1064.386719 646.101562 1063.882812 C 646.371094 1063.378906 646.664062 1062.890625 646.980469 1062.417969 C 647.300781 1061.941406 647.636719 1061.484375 648 1061.042969 C 648.363281 1060.601562 648.746094 1060.179688 649.148438 1059.777344 C 649.550781 1059.375 649.972656 1058.992188 650.414062 1058.628906 C 650.855469 1058.265625 651.3125 1057.925781 651.789062 1057.609375 C 652.261719 1057.292969 652.75 1057 653.253906 1056.730469 C 653.757812 1056.460938 654.273438 1056.21875 654.800781 1056 C 655.328125 1055.78125 655.863281 1055.589844 656.410156 1055.425781 C 656.957031 1055.257812 657.507812 1055.121094 658.066406 1055.007812 C 658.628906 1054.898438 659.191406 1054.816406 659.757812 1054.757812 C 660.328125 1054.703125 660.894531 1054.675781 661.464844 1054.675781 C 662.039062 1054.675781 662.605469 1054.703125 663.175781 1054.757812 C 663.742188 1054.816406 664.304688 1054.898438 664.867188 1055.007812 C 665.425781 1055.121094 665.976562 1055.257812 666.523438 1055.425781 C 667.070312 1055.589844 667.605469 1055.78125 668.132812 1056 C 668.660156 1056.21875 669.175781 1056.460938 669.679688 1056.730469 C 670.183594 1057 670.671875 1057.292969 671.144531 1057.609375 C 671.621094 1057.925781 672.078125 1058.265625 672.519531 1058.628906 C 672.960938 1058.992188 673.382812 1059.375 673.785156 1059.777344 C 674.1875 1060.179688 674.570312 1060.601562 674.933594 1061.042969 C 675.296875 1061.484375 675.632812 1061.941406 675.953125 1062.417969 C 676.269531 1062.890625 676.5625 1063.378906 676.832031 1063.882812 C 677.097656 1064.386719 677.34375 1064.902344 677.5625 1065.429688 C 677.78125 1065.957031 677.972656 1066.492188 678.136719 1067.039062 C 678.304688 1067.585938 678.441406 1068.136719 678.550781 1068.695312 C 678.664062 1069.257812 678.746094 1069.820312 678.804688 1070.386719 C 678.859375 1070.957031 678.886719 1071.523438 678.886719 1072.09375 Z M 678.886719 1072.09375 " fill-opacity="1" fill-rule="nonzero"/></g><path fill="#ffffff" d="M 671.226562 1071.921875 C 671.226562 1071.851562 671.226562 1071.816406 671.191406 1071.746094 C 671.191406 1071.675781 671.15625 1071.640625 671.15625 1071.570312 C 671.15625 1071.5 671.121094 1071.464844 671.085938 1071.394531 C 671.050781 1071.324219 671.050781 1071.289062 671.015625 1071.222656 C 670.980469 1071.152344 670.945312 1071.117188 670.910156 1071.082031 C 670.875 1071.011719 670.839844 1070.976562 670.808594 1070.90625 C 670.773438 1070.871094 670.773438 1070.871094 670.773438 1070.835938 L 664.089844 1063.351562 C 663.390625 1062.546875 662.167969 1062.511719 661.398438 1063.210938 C 660.59375 1063.910156 660.558594 1065.132812 661.257812 1065.902344 L 666.75 1072.09375 L 661.222656 1078.289062 C 660.523438 1079.089844 660.59375 1080.28125 661.363281 1080.980469 C 661.710938 1081.296875 662.167969 1081.46875 662.621094 1081.46875 C 663.144531 1081.46875 663.671875 1081.261719 664.054688 1080.839844 L 670.738281 1073.390625 C 670.773438 1073.355469 670.773438 1073.355469 670.773438 1073.320312 C 670.808594 1073.25 670.839844 1073.214844 670.875 1073.144531 C 670.910156 1073.109375 670.945312 1073.039062 670.980469 1073.003906 C 671.015625 1072.933594 671.050781 1072.898438 671.050781 1072.832031 C 671.085938 1072.761719 671.085938 1072.726562 671.121094 1072.65625 C 671.121094 1072.585938 671.15625 1072.550781 671.15625 1072.480469 C 671.15625 1072.410156 671.191406 1072.375 671.191406 1072.304688 C 671.191406 1072.234375 671.191406 1072.199219 671.191406 1072.128906 C 671.226562 1072.027344 671.226562 1071.992188 671.226562 1071.921875 Z M 671.226562 1071.921875 " fill-opacity="1" fill-rule="nonzero"/><path fill="#ffffff" d="M 661.746094 1073.320312 C 661.78125 1073.25 661.816406 1073.214844 661.851562 1073.144531 C 661.886719 1073.109375 661.921875 1073.039062 661.957031 1073.003906 C 661.992188 1072.933594 662.027344 1072.898438 662.027344 1072.832031 C 662.0625 1072.761719 662.0625 1072.726562 662.097656 1072.65625 C 662.097656 1072.585938 662.132812 1072.550781 662.132812 1072.480469 C 662.132812 1072.410156 662.167969 1072.375 662.167969 1072.304688 C 662.167969 1072.234375 662.167969 1072.199219 662.167969 1072.128906 C 662.167969 1072.058594 662.167969 1072.027344 662.167969 1071.957031 C 662.167969 1071.886719 662.167969 1071.851562 662.132812 1071.78125 C 662.132812 1071.710938 662.097656 1071.675781 662.097656 1071.605469 C 662.097656 1071.535156 662.0625 1071.5 662.027344 1071.429688 C 661.992188 1071.359375 661.992188 1071.324219 661.957031 1071.257812 C 661.921875 1071.1875 661.886719 1071.152344 661.851562 1071.117188 C 661.816406 1071.046875 661.78125 1071.011719 661.746094 1070.941406 C 661.710938 1070.90625 661.710938 1070.90625 661.710938 1070.871094 L 655.03125 1063.351562 C 654.332031 1062.546875 653.105469 1062.511719 652.335938 1063.210938 C 651.53125 1063.910156 651.496094 1065.132812 652.195312 1065.902344 L 657.722656 1072.09375 L 652.195312 1078.289062 C 651.496094 1079.089844 651.566406 1080.28125 652.335938 1080.980469 C 652.6875 1081.296875 653.140625 1081.46875 653.597656 1081.46875 C 654.121094 1081.46875 654.644531 1081.261719 655.03125 1080.839844 L 661.710938 1073.390625 C 661.746094 1073.355469 661.746094 1073.320312 661.746094 1073.320312 Z M 661.746094 1073.320312 " fill-opacity="1" fill-rule="nonzero"/></svg>