<?xml version="1.0" encoding="UTF-8"?>
<svg id="Layer_2" data-name="Layer 2" xmlns="http://www.w3.org/2000/svg" viewBox="0 0 573.5 521.89">
  <defs>
    <style>
      .cls-1 {
        stroke: #fff;
      }

      .cls-1, .cls-2 {
        fill: #fff;
      }

      .cls-1, .cls-2, .cls-3, .cls-4, .cls-5, .cls-6 {
        stroke-miterlimit: 10;
        stroke-width: 4px;
      }

      .cls-2, .cls-6 {
        stroke: #e59aaf;
      }

      .cls-3 {
        fill: #e59aaf;
      }

      .cls-3, .cls-5 {
        stroke: #a01236;
      }

      .cls-4 {
        fill: #a01236;
        stroke: #a01236;
      }

      .cls-5 {
        fill: #490415;
      }

      .cls-6 {
        fill: #b76e85;
      }
    </style>
  </defs>
  <g id="Layer_1-2" data-name="Layer 1">
    <ellipse class="cls-3" cx="25.74" cy="283.7" rx="23.74" ry="56.67"/>
    <ellipse class="cls-3" cx="547.76" cy="283.7" rx="23.74" ry="56.67"/>
    <path class="cls-3" d="M303.77,45.16c-20.47,122.5-126.96,215.88-255.28,215.88-5.56,0-11.06-.2-16.53-.54,0,.18,0,.36,0,.54,0,142.96,115.89,258.85,258.85,258.85,132.36,0,241.5-99.35,256.96-227.54-132.45-7.37-238.31-114.3-243.99-247.19Z"/>
    <path class="cls-5" d="M303.77,45.08c-.16-3.73-.26-7.47-.26-11.24,0-10.6,1.89-31.31,1.89-31.31-4.83-.27-9.7-.42-14.6-.42C148.02,2.11,32.25,117.71,31.95,260.42c5.47.34,10.98.54,16.53.54,128.32,0,234.81-93.37,255.28-215.88Z"/>
    <path class="cls-5" d="M308.96,2.11c-2.64,15.75-3.56,25.45-3.56,42.43,5.68,132.89,111.54,239.82,243.99,247.19,1.24-10.27,1.89-20.71,1.89-31.31,0-137.4-107.06-249.78-242.32-258.31Z"/>
    <g>
      <path class="cls-2" d="M255.82,258.13c0,28.44-30.6,17.61-68.36,17.61s-68.36,10.83-68.36-17.61,30.6-51.49,68.36-51.49,68.36,23.05,68.36,51.49Z"/>
      <circle class="cls-4" cx="187.47" cy="242.21" r="30.81"/>
    </g>
    <path class="cls-2" d="M221.5,417.77c0-28.44,30.6-17.61,68.36-17.61s68.36-10.83,68.36,17.61-30.6,51.49-68.36,51.49-68.36-23.05-68.36-51.49Z"/>
    <g>
      <path class="cls-2" d="M465.75,262.89c0,28.44-30.6,17.61-68.36,17.61s-68.36,10.83-68.36-17.61,30.6-51.49,68.36-51.49,68.36,23.05,68.36,51.49Z"/>
      <circle class="cls-4" cx="397.4" cy="246.96" r="30.81"/>
    </g>
    <path class="cls-6" d="M329.04,334.21c0,17.91-15.77,32.43-35.23,32.43s-35.23-14.52-35.23-32.43,15.77,0,35.23,0,35.23-17.91,35.23,0Z"/>
    <circle class="cls-1" cx="163.93" cy="232.24" r="9.96"/>
    <circle class="cls-1" cx="373.8" cy="232.24" r="9.96"/>
  </g>
</svg>